<?xml version="1.0" encoding="utf-8"?>
<!-- Generator: Adobe Illustrator 20.1.0, SVG Export Plug-In . SVG Version: 6.00 Build 0)  -->
<svg version="1.1" id="Layer_1" xmlns="http://www.w3.org/2000/svg" xmlns:xlink="http://www.w3.org/1999/xlink" x="0px" y="0px"
	 viewBox="0 0 923.8 123.8" style="enable-background:new 0 0 923.8 123.8;" xml:space="preserve">
<g>
	<path d="M492.4,44.6c-0.4,0.7-0.8,1.3-1.1,2C480.2,70.1,469,93.4,458,116.9c-2.3,4.9-5.4,7.4-10.9,6.9c-4-0.3-8,0-12-0.1
		c-4.9,0-7.5-2.3-8.2-7.2c-2.7-18.4-5.4-36.9-8.1-55.3c-0.7-4.8-1.4-9.7-2.1-14.5c-0.1-0.7-0.3-1.3-0.8-2
		c-3.9,26.2-7.8,52.4-11.7,78.8c-10.6,0-21.1,0-32,0c6.4-41.1,12.8-82.2,19.3-123.4c0.9,0,1.7-0.1,2.5-0.1c14.4,0,28.8,0,43.2,0
		c0.8,0,1.6,0,2.4,0.1c2.9,0.5,4.7,2.3,5,5.3c0.5,4.2,0.9,8.4,1.4,12.6c1.1,10.1,2.2,20.2,3.2,30.3c0.5,5.1,1.1,10.2,1.6,15.3
		c0.1,0.8,0.3,1.6,0.5,2.4c0.2,0,0.4,0.1,0.6,0.1c0.4-0.9,0.9-1.7,1.3-2.7c7.6-19.3,15.2-38.7,22.8-58c1.4-3.5,3.8-5.2,7.4-5.4
		c0.5,0,1,0,1.4,0c0.9,0,1.8,0,2.6,0c14.5,0,29,0,43.4,0c0.9,0,1.7,0,2.6,0c0.3,1.8-5.8,40.5-9.5,61.9c-3.5,20.5-6.6,41-10,61.7
		c-11,0-21.9,0-33.1,0c1.1-8.8,2.6-17.5,3.9-26.2c1.3-8.8,2.6-17.5,3.9-26.3c1.3-8.8,2.6-17.5,3.9-26.3
		C492.6,44.7,492.5,44.6,492.4,44.6z"/>
	<path d="M244.3,96.4c-1.4,9.2-2.8,18.1-4.2,27.2c-0.8,0.1-1.5,0.1-2.2,0.1c-32.2,0-64.3,0-96.5,0c-0.6,0-1.1,0-1.7-0.1
		c-6.5-0.6-10.4-5.1-9.5-11.6c0.9-7,2.1-13.9,3.2-20.9c1.8-11.8,3.7-23.7,5.5-35.5c1.3-8.6,2.6-17.2,4-25.8
		c0.9-5.8,3.7-10.4,9.3-12.8c1.8-0.8,3.8-1.3,5.8-1.3c29.4-0.1,58.7-0.1,88.1,0c4.6,0,7.8,2.3,8.8,6.3c0.4,1.6,0.4,3.4,0.1,5
		c-2.2,14.5-4.4,28.9-6.7,43.4c-0.3,2.1-1,4.2-1.8,6.2c-1.7,3.8-4.7,5.9-8.9,6.4c-1.2,0.1-2.4,0.2-3.6,0.2c-21.8,0-43.5,0-65.3,0
		c-3.7,0-3.7,0-4.2,3.6c-0.3,2.2-0.7,4.4-1,6.6c-0.3,2.5,0.1,2.9,2.5,2.9c1.3,0,2.6,0,3.8,0c23.8,0,47.5,0,71.3,0
		C241.9,96.4,242.9,96.4,244.3,96.4z M195.6,56.2c7.8,0,15.5,0,23.3,0c2.3,0,2.4-0.1,2.8-2.3c0.4-2.3,0.8-4.6,1.1-6.9
		c0.6-3.7,0.3-4-3.4-4c-15,0-29.9,0-44.9,0c-0.6,0-1.3,0-1.9,0c-0.8,0.1-1.4,0.4-1.5,1.3c-0.5,3.4-1.1,6.8-1.5,10.2
		c-0.1,1,0.4,1.7,1.5,1.7c0.6,0,1.3,0,1.9,0C180.5,56.2,188,56.2,195.6,56.2z"/>
	<path d="M800.7,123.6c1.4-9.2,2.9-18.1,4.3-27.2c1.1,0,2,0,2.9,0c23.2,0,46.4,0,69.6,0c0.6,0,1.3,0,1.9,0c1.6-0.1,2-0.3,2.3-1.9
		c0.5-3,1-6,1.4-9c0.2-1.5-0.3-2-1.8-2.1c-0.7-0.1-1.4,0-2.2,0c-20.2,0-40.5,0-60.7,0c-2.7,0-5.1-0.6-7.1-2.4
		c-2.5-2.3-3.2-5.1-2.7-8.3c1.1-7.2,2.2-14.4,3.4-21.6c1.2-7.5,2.3-15,3.6-22.5c1.3-7.6,6.9-12.4,14.5-12.8c0.7,0,1.4,0,2.2,0
		c29.5,0,59,0,88.5,0c0.9,0,1.9,0,3.1,0c-1.5,9.2-3,18.1-4.4,27.2c-1.2,0-2.2,0-3.3,0c-23,0-45.9,0-68.9,0c-0.7,0-1.4,0-2.2,0
		c-1.8,0.1-2.2,0.4-2.4,2.2c-0.4,2.8-0.9,5.7-1.3,8.5c-0.3,1.8,0.2,2.4,1.9,2.5c0.6,0,1.3,0,1.9,0c19.9,0,39.8,0,59.7,0
		c1.2,0,2.4,0.1,3.6,0.3c5.1,0.9,8.1,5,7.4,10c-0.8,5.3-1.6,10.6-2.5,15.9c-1.6,9.9-3.2,19.9-4.6,29.9c-0.8,5.6-3.6,9.3-9,10.9
		c-1.5,0.4-3.2,0.6-4.7,0.6c-30.8,0-61.6,0-92.4,0C802.2,123.7,801.6,123.7,800.7,123.6z"/>
	<path d="M253,123.7c1.5-9.2,2.9-18.2,4.3-27.4c1.1,0,2.1,0,3,0c23.2,0,46.4,0,69.6,0c0.6,0,1.3,0,1.9,0c1.2,0,2-0.5,2.2-1.7
		c0.5-3.1,1-6.2,1.4-9.2c0.2-1.4-0.3-1.9-1.7-2.1c-0.7-0.1-1.4,0-2.2,0c-19.8,0-39.7,0-59.5,0c-0.6,0-1.3,0-1.9,0
		c-6.2-0.1-10.1-4.6-9.2-10.7c0.6-4.4,1.3-8.7,2-13c1.5-9.9,3.2-19.9,4.6-29.9c0.9-6.7,4.3-11.2,10.8-13.2c1.6-0.5,3.3-0.7,5-0.7
		c30.2,0,60.3,0,90.5,0c0.7,0,1.4,0.1,2.3,0.1c-1.5,9.1-2.9,18-4.4,27c-1.2,0-2.3,0-3.3,0c-23,0-46.1,0-69.1,0c-0.6,0-1.3,0-1.9,0
		c-1.8,0.1-2.1,0.4-2.4,2c-0.5,2.9-0.9,5.8-1.3,8.8c-0.3,1.8,0.2,2.3,2,2.4c0.6,0,1.3,0,1.9,0c19.9,0,39.8,0,59.8,0
		c1.3,0,2.6,0.1,3.8,0.3c4.9,0.9,7.8,5.1,7.1,10c-1.3,8.5-2.7,17-4,25.6c-1.1,6.7-2.1,13.4-3.1,20.1c-1.1,7.2-5.6,11.3-13,11.5
		c-0.6,0-1.1,0-1.7,0c-30.2,0-60.3,0-90.5,0C255,123.7,254.2,123.7,253,123.7z"/>
	<path d="M119.5,96.3c-1.5,9.2-2.9,18.2-4.3,27.4c-0.9,0-1.8,0.1-2.8,0.1c-24.6,0-49.1,0-73.7,0c-8.1,0-16.2,0-24.2,0
		c-1.8,0-3.7-0.2-5.4-0.7c-5.8-1.7-9.8-7.9-9-14c0.8-6.1,1.8-12.2,2.7-18.3c1.8-12,3.7-24,5.5-36c2-13.1,4-26.2,6-39.3
		c0.7-4.6,1.4-9.2,2.1-13.7c0.1-0.5,0.2-0.9,0.3-1.5c10.4,0,20.8,0,31.5,0c-0.3,2.1-0.5,4.1-0.8,6.1c-2.3,15.7-4.7,31.5-7,47.2
		C38.7,65.7,36.8,78,35,90.2c-0.1,0.7-0.3,1.4-0.3,2.1c0,2,1.3,3.5,3.3,3.8c0.9,0.1,1.8,0.1,2.6,0.1c25.2,0,50.4,0,75.6-0.1
		C117.2,96.3,118.1,96.3,119.5,96.3z"/>
	<path d="M587.8,15.9c9.9,0,19.7,0,29.8,0c-0.1,0.9-0.1,1.7-0.2,2.5c-1.7,11.5-3.4,23.1-5,34.6c-1.5,10.4-3,20.9-4.5,31.3
		c-0.4,2.5-0.7,4.9-1,7.4c-0.4,3.2,1,4.6,4.2,4.6c7.5,0,15,0,22.5,0c13.6,0,27.2,0,40.8,0c0.9,0,1.7,0,2.9,0
		c-1.4,9.2-2.8,18.2-4.2,27.4c-0.9,0-1.7,0-2.5,0c-28.1,0-56.3,0-84.4,0c-1.4,0-2.9-0.1-4.3-0.4c-4.6-1-9.6-5.6-8.5-12.3
		c0.9-5.7,1.7-11.4,2.6-17.1c1.7-11.1,3.4-22.1,5.1-33.2c1.8-12.1,3.7-24.2,5.5-36.3C586.9,21.6,587.4,18.8,587.8,15.9z"/>
	<path d="M787.7,123.7c-1,0-1.7,0-2.5,0c-28.2,0-56.3,0-84.5,0c-3,0-5.9-0.5-8.4-2.4c-3.3-2.5-5-5.8-4.4-10
		c1.2-8.1,2.4-16.1,3.6-24.2c1.7-11.1,3.4-22.1,5.1-33.2c1.8-12,3.6-24,5.5-36c0.1-0.6,0.3-1.3,0.4-2c9.9,0,19.7,0,29.8,0
		c-0.5,3.3-0.9,6.6-1.4,9.8c-1.7,11.6-3.4,23.3-5.1,34.9c-1.5,10.3-3,20.6-4.4,30.9c-0.5,3.4,0.8,4.9,4.4,4.9c21,0,41.9,0,62.9,0
		c0.9,0,1.9,0,3.2,0C790.5,105.6,789.1,114.5,787.7,123.7z"/>
	<path d="M527.2,123.6c5.6-36.1,11.1-71.9,16.6-107.7c10.5,0,20.7,0,31.1,0c-5.6,36-11.1,71.8-16.6,107.7
		C547.9,123.6,537.7,123.6,527.2,123.6z"/>
</g>
</svg>
