<?xml version="1.0" encoding="utf-8"?>
<!-- Generator: Adobe Illustrator 16.0.0, SVG Export Plug-In . SVG Version: 6.00 Build 0)  -->
<!DOCTYPE svg PUBLIC "-//W3C//DTD SVG 1.1//EN" "http://www.w3.org/Graphics/SVG/1.1/DTD/svg11.dtd">
<svg version="1.1" id="Layer_1" xmlns="http://www.w3.org/2000/svg" xmlns:xlink="http://www.w3.org/1999/xlink" x="0px" y="0px"
	 width="33px" height="288.351px" viewBox="26.825 -127.675 33 288.351" enable-background="new 26.825 -127.675 33 288.351"
	 xml:space="preserve">
<rect x="26.825" y="-127.675" width="33" height="288.351"/>
<g id="Layer_2" display="none">
	<rect y="-15" display="inline" width="86" height="57"/>
</g>
<line fill="none" stroke="#FFFFFF" stroke-width="0.75" stroke-miterlimit="10" x1="59.825" y1="-127.175" x2="26.825" y2="-127.175"/>
<line fill="none" stroke="#FFFFFF" stroke-width="0.5" stroke-miterlimit="10" x1="47.825" y1="-98.675" x2="26.825" y2="-98.675"/>
<line fill="none" stroke="#FFFFFF" stroke-width="0.5" stroke-miterlimit="10" x1="47.825" y1="-112.925" x2="26.825" y2="-112.925"/>
<line fill="none" stroke="#FFFFFF" stroke-width="0.5" stroke-miterlimit="10" x1="47.825" y1="-70.8" x2="26.825" y2="-70.8"/>
<line fill="none" stroke="#FFFFFF" stroke-width="0.5" stroke-miterlimit="10" x1="47.825" y1="-84.487" x2="26.825" y2="-84.487"/>
<line fill="none" stroke="#FFFFFF" stroke-width="0.5" stroke-miterlimit="10" x1="47.825" y1="-54.825" x2="26.825" y2="-54.825"/>
<line fill="none" stroke="#FFFFFF" stroke-width="0.5" stroke-miterlimit="10" x1="47.825" y1="-41.012" x2="26.825" y2="-41.012"/>
<line fill="none" stroke="#FFFFFF" stroke-width="0.5" stroke-miterlimit="10" x1="47.825" y1="-12.133" x2="26.825" y2="-12.133"/>
<line fill="none" stroke="#FFFFFF" stroke-width="0.5" stroke-miterlimit="10" x1="47.825" y1="-25.8" x2="26.825" y2="-25.8"/>
<line fill="none" stroke="#FFFFFF" stroke-width="0.75" stroke-miterlimit="10" x1="47.825" y1="16.2" x2="26.825" y2="16.2"/>
<line fill="none" stroke="#FFFFFF" stroke-width="0.5" stroke-miterlimit="10" x1="47.825" y1="2.054" x2="26.825" y2="2.054"/>
<line fill="none" stroke="#FFFFFF" stroke-width="0.5" stroke-miterlimit="10" x1="47.825" y1="32.383" x2="26.825" y2="32.383"/>
<line fill="none" stroke="#FFFFFF" stroke-width="0.5" stroke-miterlimit="10" x1="47.825" y1="60.175" x2="26.825" y2="60.175"/>
<line fill="none" stroke="#FFFFFF" stroke-width="0.5" stroke-miterlimit="10" x1="47.825" y1="45.529" x2="26.825" y2="45.529"/>
<line fill="none" stroke="#FFFFFF" stroke-width="0.5" stroke-miterlimit="10" x1="47.825" y1="73.925" x2="26.825" y2="73.925"/>
<line fill="none" stroke="#FFFFFF" stroke-width="0.5" stroke-miterlimit="10" x1="47.825" y1="102.258" x2="26.825" y2="102.258"/>
<line fill="none" stroke="#FFFFFF" stroke-width="0.5" stroke-miterlimit="10" x1="47.825" y1="88.113" x2="26.825" y2="88.113"/>
<line fill="none" stroke="#FFFFFF" stroke-width="0.5" stroke-miterlimit="10" x1="47.825" y1="118.088" x2="26.825" y2="118.088"/>
<line fill="none" stroke="#FFFFFF" stroke-width="0.5" stroke-miterlimit="10" x1="47.825" y1="132.254" x2="26.825" y2="132.254"/>
<line fill="none" stroke="#FFFFFF" stroke-width="0.5" stroke-miterlimit="10" x1="47.825" y1="147.217" x2="26.825" y2="147.217"/>
</svg>
