<?xml version="1.0" encoding="utf-8"?>
<!-- Generator: Adobe Illustrator 16.0.0, SVG Export Plug-In . SVG Version: 6.00 Build 0)  -->
<!DOCTYPE svg PUBLIC "-//W3C//DTD SVG 1.1//EN" "http://www.w3.org/Graphics/SVG/1.1/DTD/svg11.dtd">
<svg version="1.1" xmlns="http://www.w3.org/2000/svg" xmlns:xlink="http://www.w3.org/1999/xlink" x="0px" y="0px" width="100%"
	 height="100%" viewBox="0 0 60.36 39.37" enable-background="new 0 0 60.36 39.37" xml:space="preserve">
<g id="sun">
</g>
<g id="Cloudy">
	<path fill="#fff" d="M16.89,0C10.43,0,5.19,4.89,4.7,11.25C1.94,12.04,0,14.58,0,17.5c0,3.04,2.16,5.72,5.13,6.36l0.18,0.02
		h0.63c0.19-0.37,0.41-0.72,0.66-1.06c0.13-0.19,0.27-0.37,0.41-0.54H5.39c-2.2-0.51-3.79-2.51-3.79-4.78c0-2.36,1.69-4.4,4.01-4.83
		l0.64-0.11l0.02-0.65C6.43,6.13,11.1,1.6,16.89,1.6c2.23,0,4.33,0.7,6.06,1.93c0.05-0.02,0.11-0.05,0.16-0.07
		c0.52-0.22,1.07-0.42,1.61-0.59C22.58,1.07,19.83,0,16.89,0z"/>
	<path fill="#fff" d="M49.39,16.77c-2.159-8-9.55-13.71-17.939-13.71c-1.96,0-3.85,0.3-5.62,0.85c-0.56,0.18-1.12,0.38-1.66,0.61
		c-6.23,2.62-10.69,8.53-11.25,15.64c-1.44,0.41-2.74,1.15-3.82,2.12c-0.54,0.47-1.03,1.01-1.44,1.6c-1.19,1.64-1.88,3.65-1.88,5.79
		c0,4.62,3.28,8.69,7.8,9.67l0.27,0.03h35.2c6.23,0,11.311-5.08,11.311-11.31C60.36,21.95,55.47,16.95,49.39,16.77z M49.05,36.93
		H13.98c-3.35-0.78-5.76-3.82-5.76-7.26c0-2.31,1.06-4.42,2.75-5.79c0.94-0.77,2.08-1.31,3.34-1.55l0.27-0.05l0.7-0.13l0.03-0.98
		C15.5,14.36,19.8,8.7,25.82,6.5c0.51-0.2,1.04-0.36,1.57-0.5c1.3-0.32,2.66-0.5,4.06-0.5C38.6,5.5,44.91,10.26,46.93,17
		c-2.71,0.52-5.13,1.99-6.85,4.23l1.94,1.48c1.689-2.22,4.26-3.49,7.05-3.49V19.2c4.88,0.01,8.85,3.98,8.85,8.86
		C57.92,32.95,53.94,36.93,49.05,36.93z"/>
</g>
<g id="PartlyCloudy">
</g>
<g id="windy">
</g>
<g id="Rain">
</g>
<g id="Layer_7">
</g>
</svg>
