<?xml version="1.0" encoding="utf-8"?>
<!-- Generator: Adobe Illustrator 16.0.0, SVG Export Plug-In . SVG Version: 6.00 Build 0)  -->
<!DOCTYPE svg PUBLIC "-//W3C//DTD SVG 1.1//EN" "http://www.w3.org/Graphics/SVG/1.1/DTD/svg11.dtd">
<svg version="1.1" id="Layer_1" xmlns="http://www.w3.org/2000/svg" xmlns:xlink="http://www.w3.org/1999/xlink" x="0px" y="0px"
	 width="16px" height="10.816px" viewBox="0 1.063 16 10.816" enable-background="new 0 1.063 16 10.816" xml:space="preserve">
<g id="sun">
</g>
<g id="Cloudy">
</g>
<g id="PartlyCloudy">
</g>
<g id="windy">
</g>
<g id="Rain">
	<path fill="#FFFFFF" d="M12.783,5.082C12.15,2.737,9.984,1.063,7.526,1.063c-0.576,0-1.13,0.087-1.647,0.248
		C5.712,1.364,5.548,1.422,5.39,1.491C3.565,2.257,2.258,3.992,2.091,6.075c-0.42,0.119-0.803,0.338-1.12,0.621
		c-0.158,0.138-0.301,0.296-0.422,0.47C0.201,7.646,0,8.235,0,8.863c0,1.355,0.961,2.546,2.287,2.834l0.08,0.01h2.205v-0.715H2.403
		c-0.982-0.23-1.687-1.119-1.687-2.129c0-0.678,0.309-1.296,0.805-1.698c0.275-0.225,0.61-0.386,0.98-0.454L2.58,6.695l0.203-0.037
		L2.794,6.37c0.055-1.996,1.315-3.654,3.082-4.302c0.148-0.058,0.304-0.105,0.459-0.145c0.38-0.095,0.779-0.148,1.191-0.148
		c2.094,0,3.945,1.397,4.537,3.372c-0.795,0.153-1.505,0.584-2.007,1.241l0.567,0.433C11.119,6.172,11.872,5.8,12.691,5.8V5.792
		c1.428,0.005,2.593,1.167,2.593,2.599s-1.162,2.596-2.593,2.602v0.715C14.516,11.702,16,10.215,16,8.391
		C16,6.601,14.566,5.135,12.783,5.082z"/>
	<g>
		<path fill="#FFFFFF" d="M6.177,11.35c-0.046,0-0.094-0.012-0.137-0.036c-0.135-0.075-0.183-0.247-0.107-0.382l1.364-2.42
			C7.374,8.376,7.545,8.329,7.68,8.404C7.815,8.48,7.863,8.652,7.787,8.787l-1.364,2.42C6.371,11.299,6.275,11.35,6.177,11.35z"/>
	</g>
	<g>
		<path fill="#FFFFFF" d="M8.355,11.614c-0.047,0-0.094-0.012-0.138-0.036c-0.135-0.076-0.183-0.248-0.106-0.383l1.365-2.42
			c0.076-0.135,0.247-0.183,0.382-0.107c0.135,0.076,0.183,0.248,0.106,0.383L8.6,11.471C8.549,11.562,8.454,11.614,8.355,11.614z"
			/>
	</g>
	<g>
		<path fill="#FFFFFF" d="M10.358,11.879c-0.047,0-0.094-0.013-0.138-0.037c-0.135-0.076-0.182-0.248-0.106-0.383l1.364-2.42
			c0.076-0.135,0.248-0.182,0.383-0.106c0.135,0.076,0.183,0.247,0.106,0.382l-1.364,2.421
			C10.552,11.826,10.457,11.879,10.358,11.879z"/>
	</g>
</g>
</svg>
