<?xml version="1.0" encoding="utf-8"?>
<!-- Generator: Adobe Illustrator 16.0.0, SVG Export Plug-In . SVG Version: 6.00 Build 0)  -->
<!DOCTYPE svg PUBLIC "-//W3C//DTD SVG 1.1//EN" "http://www.w3.org/Graphics/SVG/1.1/DTD/svg11.dtd">
<svg version="1.1" xmlns="http://www.w3.org/2000/svg" xmlns:xlink="http://www.w3.org/1999/xlink" x="0px" y="0px"
	 width="100%" height="100%" viewBox="0 0 55.047 44.99" enable-background="new 0 0 55.047 44.99" xml:space="preserve">
<g id="sun">
</g>
<g id="Cloudy">
</g>
<g id="PartlyCloudy">
</g>
<g id="windy">
</g>
<g id="Rain">
</g>
<g id="Layer_7">
	<g>
		<g>
			<path fill="#fff" d="M21.348,10.98c-5.721,0-10.36,4.649-10.36,10.359c0,5.05,3.61,9.25,8.39,10.17
				c0.641-0.49,1.37-0.87,2.17-1.09c0.011-0.08,0.021-0.17,0.03-0.25c-0.08,0.01-0.15,0.01-0.229,0.01
				c-4.881,0-8.841-3.96-8.841-8.84c0-4.87,3.96-8.84,8.841-8.84c4.27,0,7.85,3.05,8.659,7.08h0.011
				c0.06-0.021,0.119-0.04,0.18-0.061c0.42-0.13,0.85-0.239,1.29-0.319C30.497,14.51,26.327,10.98,21.348,10.98z"/>
		</g>
		<g>
			<g>
				<rect x="20.585" fill="#fff" width="1.518" height="8.396"/>
			</g>
		</g>
		<g>
			<g>
				
					<rect x="5.022" y="8.46" transform="matrix(0.707 0.7072 -0.7072 0.707 9.221 -3.8184)" fill="#fff" width="8.395" height="1.52"/>
			</g>
		</g>
		<g>
			<g>
				<rect y="20.585" fill="#fff" width="8.396" height="1.519"/>
			</g>
		</g>
		<g>
			<g>
				
					<rect x="8.459" y="29.272" transform="matrix(0.7071 0.7071 -0.7071 0.7071 26.3666 3.2839)" fill="#fff" width="1.521" height="8.394"/>
			</g>
			<g>
				
					<rect x="32.708" y="5.023" transform="matrix(0.7068 0.7074 -0.7074 0.7068 16.336 -20.9729)" fill="#fff" width="1.521" height="8.393"/>
			</g>
		</g>
	</g>
	<path fill="#fff" d="M47.697,29.83c-0.91-3.38-3.21-6.14-6.2-7.73c-1.76-0.93-3.76-1.46-5.84-1.46
		c-0.46,0-0.92,0.021-1.37,0.091c-0.83,0.069-1.63,0.239-2.4,0.479c-0.06,0.021-0.119,0.04-0.18,0.06
		c-0.31,0.101-0.63,0.221-0.93,0.351c-0.21,0.09-0.41,0.18-0.61,0.29c-3.21,1.54-5.63,4.43-6.54,7.97
		c-0.149,0.53-0.26,1.07-0.319,1.63c-0.03,0.2-0.051,0.4-0.07,0.601c-0.97,0.27-1.84,0.77-2.57,1.42
		c-0.359,0.31-0.689,0.67-0.96,1.069c-0.8,1.101-1.26,2.45-1.26,3.881c0,3.1,2.2,5.829,5.229,6.489l0.181,0.021h23.609
		c4.181,0,7.58-3.41,7.58-7.59C55.047,33.31,51.768,29.95,47.697,29.83z M47.467,43.35h-23.52c-0.68-0.159-1.3-0.46-1.84-0.85
		c-0.65-0.49-1.181-1.12-1.521-1.85c-0.33-0.66-0.51-1.4-0.51-2.17c0-0.78,0.18-1.53,0.51-2.2c0.32-0.65,0.78-1.221,1.34-1.681
		c0.061-0.05,0.12-0.1,0.181-0.13c0.59-0.46,1.29-0.76,2.06-0.91l0.181-0.029l0.47-0.09l0.02-0.66c0.021-0.601,0.08-1.19,0.2-1.761
		c0.12-0.67,0.311-1.319,0.561-1.93c0.819-2.12,2.3-3.899,4.18-5.1c0.56-0.36,1.149-0.67,1.78-0.92
		c0.109-0.051,0.22-0.09,0.329-0.13c0.341-0.131,0.69-0.24,1.051-0.33c0.87-0.221,1.779-0.341,2.72-0.341
		c4.8,0,9.03,3.19,10.39,7.721c-1.819,0.34-3.449,1.33-4.6,2.83l1.3,0.989c1.14-1.479,2.86-2.34,4.73-2.34v-0.01
		c3.27,0.01,5.939,2.67,5.939,5.94C53.417,40.68,50.747,43.35,47.467,43.35z"/>
</g>
</svg>
