<?xml version="1.0" encoding="utf-8"?>
<!-- Generator: Adobe Illustrator 16.0.0, SVG Export Plug-In . SVG Version: 6.00 Build 0)  -->
<!DOCTYPE svg PUBLIC "-//W3C//DTD SVG 1.1//EN" "http://www.w3.org/Graphics/SVG/1.1/DTD/svg11.dtd">
<svg version="1.1" xmlns="http://www.w3.org/2000/svg" xmlns:xlink="http://www.w3.org/1999/xlink" x="0px" y="0px"
	 width="100%" height="100%" viewBox="0 0 60.524 44.6" enable-background="new 0 0 60.524 44.6" xml:space="preserve">
<g id="sun">
</g>
<g id="Cloudy">
</g>
<g id="PartlyCloudy">
	<g>
		<g>
			<path fill="#fff" d="M20.834,10.719c-5.58,0-10.109,4.54-10.109,10.11c0,2.91,1.229,5.54,3.199,7.38
				c0.051-0.05,0.11-0.1,0.171-0.14c0.319-0.28,0.68-0.54,1.05-0.76c-1.8-1.58-2.94-3.9-2.94-6.48c0-4.76,3.87-8.63,8.63-8.63
				c1.65,0,3.19,0.47,4.5,1.28c0.07-0.05,0.141-0.09,0.21-0.13c0.42-0.24,0.84-0.45,1.28-0.65
				C25.145,11.459,23.074,10.719,20.834,10.719z"/>
		</g>
		<g>
			<g>
				<rect x="20.09" fill="#fff" width="1.482" height="8.193"/>
			</g>
		</g>
		<g>
			<g>
				
					<rect x="4.902" y="8.256" transform="matrix(0.7071 0.7071 -0.7071 0.7071 8.9977 -3.7273)" fill="#fff" width="8.192" height="1.483"/>
			</g>
		</g>
		<g>
			<g>
				<rect y="20.089" fill="#fff" width="8.192" height="1.483"/>
			</g>
		</g>
		<g>
			<g>
				
					<rect x="8.257" y="28.567" transform="matrix(0.7074 0.7068 -0.7068 0.7074 25.718 3.1964)" fill="#fff" width="1.483" height="8.192"/>
			</g>
			<g>
				
					<rect x="31.923" y="4.901" transform="matrix(0.7076 0.7066 -0.7066 0.7076 15.9086 -20.45)" fill="#fff" width="1.482" height="8.192"/>
			</g>
		</g>
	</g>
	<path fill="#fff" d="M50.814,24.589c-1.91-7.08-8.46-12.14-15.891-12.14c-1.729,0-3.399,0.27-4.97,0.76
		c-0.5,0.16-0.99,0.33-1.47,0.54c-0.101,0.04-0.21,0.09-0.311,0.14c-0.479,0.21-0.939,0.44-1.39,0.7c-4.62,2.6-7.81,7.38-8.26,13
		c-0.66,0.19-1.29,0.46-1.87,0.79c-0.47,0.27-0.92,0.58-1.32,0.93c-0.069,0.05-0.13,0.1-0.189,0.16c-0.48,0.42-0.91,0.89-1.28,1.42
		c-1.05,1.45-1.66,3.23-1.66,5.12c0,4.09,2.9,7.7,6.9,8.56l0.24,0.03h31.17c5.51,0,10.01-4.5,10.01-10.01
		C60.524,29.179,56.194,24.75,50.814,24.589z M50.515,42.439H19.464c-2.97-0.69-5.1-3.38-5.1-6.43c0-2.04,0.94-3.91,2.43-5.12
		c0.23-0.18,0.471-0.35,0.721-0.51c0.67-0.41,1.42-0.71,2.239-0.87l0.24-0.04l0.19-0.03l0.43-0.08l0.03-0.87
		c0.14-5.34,3.14-9.87,7.52-12.19c0.44-0.24,0.891-0.45,1.351-0.63c0.14-0.06,0.29-0.12,0.43-0.17c0.45-0.18,0.92-0.32,1.39-0.44
		c1.15-0.29,2.36-0.45,3.59-0.45c6.33,0,11.921,4.22,13.71,10.19c-2.399,0.46-4.539,1.76-6.06,3.74l1.71,1.31
		c1.5-1.96,3.771-3.09,6.24-3.09v-0.02c4.32,0.01,7.84,3.53,7.84,7.85C58.364,38.919,54.845,42.439,50.515,42.439z"/>
</g>
<g id="windy">
</g>
<g id="Rain">
</g>
<g id="Layer_7">
</g>
</svg>
