<?xml version="1.0" encoding="utf-8"?>
<!-- Generator: Adobe Illustrator 16.0.0, SVG Export Plug-In . SVG Version: 6.00 Build 0)  -->
<!DOCTYPE svg PUBLIC "-//W3C//DTD SVG 1.1//EN" "http://www.w3.org/Graphics/SVG/1.1/DTD/svg11.dtd">
<svg version="1.1" xmlns="http://www.w3.org/2000/svg" xmlns:xlink="http://www.w3.org/1999/xlink" x="0px" y="0px" width="100%"
	 height="100%" viewBox="0 0 60.59 52.539" enable-background="new 0 0 60.59 52.539" xml:space="preserve">
<g id="sun">
</g>
<g id="Cloudy">
</g>
<g id="PartlyCloudy">
</g>
<g id="windy">
</g>
<g id="Rain">
	<path fill="#fff" d="M48.41,15.22C46.01,6.34,37.81,0,28.5,0c-2.18,0-4.28,0.329-6.24,0.939c-0.63,0.2-1.25,0.42-1.85,0.68
		C13.5,4.52,8.55,11.09,7.92,18.979c-1.59,0.45-3.04,1.28-4.24,2.35c-0.6,0.521-1.14,1.12-1.6,1.78C0.76,24.93,0,27.159,0,29.54
		c0,5.13,3.64,9.64,8.66,10.729l0.3,0.04h8.35V37.6H9.1c-3.72-0.87-6.39-4.24-6.39-8.06c0-2.57,1.17-4.91,3.05-6.431
		c1.04-0.85,2.31-1.46,3.71-1.72l0.3-0.061l0.77-0.14l0.04-1.09c0.21-7.56,4.98-13.84,11.67-16.29c0.56-0.22,1.15-0.4,1.74-0.55
		c1.44-0.36,2.95-0.561,4.51-0.561c7.93,0,14.94,5.29,17.18,12.771c-3.01,0.58-5.7,2.21-7.601,4.7l2.15,1.64
		c1.88-2.46,4.73-3.87,7.83-3.87v-0.03c5.41,0.021,9.82,4.42,9.82,9.841c0,5.42-4.4,9.829-9.82,9.85v2.71
		c6.91-0.02,12.53-5.65,12.53-12.56C60.59,20.97,55.16,15.42,48.41,15.22z"/>
	<g>
		<path fill="#fff" d="M23.393,38.956c-0.177,0-0.356-0.045-0.521-0.138c-0.511-0.288-0.692-0.937-0.404-1.447l5.167-9.166
			c0.288-0.511,0.937-0.691,1.448-0.404c0.511,0.288,0.692,0.937,0.404,1.447l-5.167,9.166
			C24.125,38.761,23.764,38.956,23.393,38.956z"/>
	</g>
	<g>
		<path fill="#fff" d="M31.641,39.956c-0.177,0-0.356-0.045-0.521-0.138c-0.511-0.288-0.692-0.937-0.403-1.448l5.167-9.166
			c0.289-0.51,0.938-0.689,1.448-0.403c0.511,0.288,0.691,0.937,0.403,1.448l-5.167,9.166
			C32.373,39.761,32.012,39.956,31.641,39.956z"/>
	</g>
	<g>
		<path fill="#fff" d="M39.226,40.956c-0.177,0-0.356-0.045-0.521-0.138c-0.511-0.288-0.691-0.937-0.403-1.448l5.167-9.166
			c0.289-0.511,0.938-0.689,1.448-0.403c0.511,0.288,0.691,0.937,0.403,1.448l-5.167,9.166
			C39.958,40.761,39.597,40.956,39.226,40.956z"/>
	</g>
	<g>
		<path fill="#fff" d="M21.393,50.539c-0.177,0-0.356-0.045-0.521-0.138c-0.511-0.288-0.692-0.937-0.404-1.447l5.167-9.166
			c0.288-0.512,0.936-0.69,1.448-0.404c0.511,0.288,0.692,0.937,0.404,1.447l-5.167,9.166
			C22.125,50.344,21.764,50.539,21.393,50.539z"/>
	</g>
	<g>
		<path fill="#fff" d="M29.641,51.539c-0.177,0-0.356-0.045-0.521-0.138c-0.511-0.288-0.692-0.937-0.404-1.448l5.167-9.166
			c0.289-0.51,0.937-0.69,1.448-0.403c0.511,0.288,0.691,0.937,0.403,1.448l-5.167,9.166C30.373,51.344,30.012,51.539,29.641,51.539
			z"/>
	</g>
	<g>
		<path fill="#fff" d="M37.226,52.539c-0.177,0-0.356-0.045-0.521-0.138c-0.511-0.288-0.691-0.937-0.403-1.448l5.167-9.166
			c0.289-0.51,0.938-0.69,1.448-0.403c0.511,0.288,0.691,0.937,0.403,1.448l-5.167,9.166C37.958,52.344,37.597,52.539,37.226,52.539
			z"/>
	</g>
</g>
</svg>
