<?xml version="1.0" encoding="utf-8"?>
<!-- Generator: Adobe Illustrator 16.0.0, SVG Export Plug-In . SVG Version: 6.00 Build 0)  -->
<!DOCTYPE svg PUBLIC "-//W3C//DTD SVG 1.1//EN" "http://www.w3.org/Graphics/SVG/1.1/DTD/svg11.dtd">
<svg version="1.1" xmlns="http://www.w3.org/2000/svg" xmlns:xlink="http://www.w3.org/1999/xlink" x="0px" y="0px"
	 width="100%" height="100%" viewBox="0 0 60.255 38.593" enable-background="new 0 0 60.255 38.593" xml:space="preserve">
<g id="sun">
</g>
<g id="Cloudy">
</g>
<g id="PartlyCloudy">
</g>
<g id="windy">
	<g>
		<path fill="#fff" d="M47.812,24.877H0V22.75h47.812c5.689,0,10.317-4.623,10.317-10.307c0-5.688-4.628-10.316-10.317-10.316
			c-4.261,0-8.137,2.674-9.646,6.653l-1.988-0.754C37.999,3.226,42.674,0,47.812,0c6.861,0,12.443,5.582,12.443,12.443
			C60.255,19.299,54.673,24.877,47.812,24.877z"/>
	</g>
	<g>
		<path fill="#fff" d="M35.747,20.397H7.938v-1.418h27.809c1.358,0,2.463-1.104,2.463-2.46c0-1.358-1.105-2.463-2.463-2.463
			c-1.018,0-1.943,0.638-2.303,1.588l-1.325-0.502c0.567-1.497,2.026-2.504,3.628-2.504c2.14,0,3.88,1.741,3.88,3.881
			C39.627,18.657,37.886,20.397,35.747,20.397z"/>
	</g>
	<g>
		<path fill="#fff" d="M41.643,38.593c-2.473,0-4.722-1.551-5.597-3.86l1.988-0.754c0.564,1.488,2.014,2.488,3.609,2.488
			c2.128,0,3.859-1.731,3.859-3.859c0-2.126-1.731-3.854-3.859-3.854H15.062v-2.127h26.581c3.3,0,5.985,2.684,5.985,5.981
			C47.628,35.908,44.943,38.593,41.643,38.593z"/>
	</g>
</g>
<g id="Rain">
</g>
<g id="Layer_7">
</g>
</svg>
