<?xml version="1.0" encoding="utf-8"?>
<!-- Generator: Adobe Illustrator 20.1.0, SVG Export Plug-In . SVG Version: 6.00 Build 0)  -->
<svg version="1.1" id="Layer_2" xmlns="http://www.w3.org/2000/svg" xmlns:xlink="http://www.w3.org/1999/xlink" x="0px" y="0px"
	 viewBox="0 0 225 225" style="enable-background:new 0 0 225 225;" xml:space="preserve">
<style type="text/css">
	.st0{fill:#efefef;}
</style>
<path class="st0" d="M112.5,10C169,10,215,56,215,112.5S169,215,112.5,215S10,169,10,112.5S56,10,112.5,10 M112.5,0
	C50.4,0,0,50.4,0,112.5S50.4,225,112.5,225S225,174.6,225,112.5S174.6,0,112.5,0L112.5,0z"/>
<path class="st0" d="M78.5,52.6l99,57.8c2,1.2,2,4,0,5.2l-99,56.8c-2,1.1-4.5-0.3-4.5-2.6V55.2C74,52.9,76.5,51.5,78.5,52.6z"/>
</svg>
