<?xml version="1.0" encoding="utf-8"?>
<!-- Generator: Adobe Illustrator 21.1.0, SVG Export Plug-In . SVG Version: 6.00 Build 0)  -->
<svg version="1.1" id="Layer_2" xmlns="http://www.w3.org/2000/svg" xmlns:xlink="http://www.w3.org/1999/xlink" x="0px" y="0px"
	 viewBox="0 0 481.7 889.7" style="enable-background:new 0 0 481.7 889.7;" xml:space="preserve">
<style type="text/css">
	.svg-path{
    fill:none;
    stroke-miterlimit:10;
    stroke-width:3px;
  }
  .dark{
    stroke:#272727;
  }
  .light{
    stroke:#efefef;
  }
  .detail{
    stroke:#efefef;
    stroke-width:2px;
  }
  .fill-animate{
    animation-timing-function: ease-in-out;
    animation-fill-mode: forwards;
    animation-name: FillIn;
    animation-duration: 1s;
    animation-delay: 2s;
    fill-opacity: 0;
  }
  .red{
    fill:#fb4e3e;
  }
  .orange{
    fill:#e94101;
  }
  @keyframes FillIn {
    from { fill-opacity: 0; }
    to { fill-opacity: 1; }
  }
</style>
<path class="svg-path light" d="M0.5,106.8V14.2c0-7.5,6.1-13.7,13.7-13.7h453.3c7.5,0,13.7,6.1,13.7,13.7v92.7c0,7.5-6.1,13.7-13.7,13.7H14.2
	C6.6,120.5,0.5,114.4,0.5,106.8z"/>
<line class="svg-path light" x1="467.5" y1="0.5" x2="467.5" y2="120.5"/>
<line class="svg-path light" x1="14.2" y1="0.5" x2="14.2" y2="120.5"/>
<rect x="238.2" y="470.8" transform="matrix(-1.836970e-16 1 -1 -1.836970e-16 779.3333 285)" class="svg-path light" width="18" height="122.7"/>
<line class="svg-path light" x1="308.5" y1="532.2" x2="459.2" y2="120.5"/>
<line class="svg-path light" x1="24.1" y1="120.5" x2="185.8" y2="532.2"/>
<polygon class="svg-path light" points="274.8,474.5 266.8,474.5 266.8,435.2 227.5,435.2 227.5,474.5 219.5,474.5 219.5,523.2 274.8,523.2 "/>
<rect x="244.2" y="412.5" transform="matrix(6.123234e-17 -1 1 6.123234e-17 -185 679.3333)" class="svg-path light fill-animate orange" width="6" height="39.3"/>
<rect x="215.2" y="545.5" transform="matrix(-1.836970e-16 1 -1 -1.836970e-16 820.3334 326)" class="svg-path light" width="64" height="55.3"/>
<rect x="105.2" y="727.5" transform="matrix(-1.836970e-16 1 -1 -1.836970e-16 994.3334 500)" class="svg-path light fill-animate orange" width="284" height="39.3"/>
</svg>
