<?xml version="1.0" encoding="utf-8"?>
<!-- Generator: Adobe Illustrator 21.1.0, SVG Export Plug-In . SVG Version: 6.00 Build 0)  -->
<svg version="1.1" id="Layer_2" xmlns="http://www.w3.org/2000/svg" xmlns:xlink="http://www.w3.org/1999/xlink" x="0px" y="0px"
	 viewBox="0 0 481.7 1390.9" style="enable-background:new 0 0 481.7 1390.9;" xml:space="preserve">
<style type="text/css">
	.st0{fill:none;stroke:#000000;stroke-miterlimit:10;}
</style>
<path class="st0" d="M0.5,106.8V14.2c0-7.5,6.1-13.7,13.7-13.7h453.3c7.5,0,13.7,6.1,13.7,13.7v92.7c0,7.5-6.1,13.7-13.7,13.7H14.2
	C6.6,120.5,0.5,114.4,0.5,106.8z"/>
<line class="st0" x1="467.5" y1="0.5" x2="467.5" y2="120.5"/>
<line class="st0" x1="14.2" y1="0.5" x2="14.2" y2="120.5"/>
<rect x="238.2" y="470.8" transform="matrix(-1.836970e-16 1 -1 -1.836970e-16 779.3333 285)" class="st0" width="18" height="122.7"/>
<line class="st0" x1="308.5" y1="532.2" x2="459.2" y2="120.5"/>
<line class="st0" x1="24.1" y1="120.5" x2="185.8" y2="532.2"/>
<polygon class="st0" points="274.8,474.5 266.8,474.5 266.8,435.2 227.5,435.2 227.5,474.5 219.5,474.5 219.5,523.2 274.8,523.2 "/>
<rect x="244.2" y="412.5" transform="matrix(6.123234e-17 -1 1 6.123234e-17 -185 679.3333)" class="st0" width="6" height="39.3"/>
<rect x="215.2" y="545.5" transform="matrix(-1.836970e-16 1 -1 -1.836970e-16 820.3334 326)" class="st0" width="64" height="55.3"/>
<rect x="-145.4" y="978.1" transform="matrix(-1.836970e-16 1 -1 -1.836970e-16 1244.9387 750.6054)" class="st0" width="785.2" height="39.3"/>
</svg>
