<svg height="0" width="0">
      <defs>
      <clipPath id="pattern">
        <path d="M509.5,125.5c-6.6-3.7-13.5-8.2-20.8-11.4c-16.5-7.1-33.8-12.2-51.4-16c-8.9-1.9-18-3.3-27-4.6c-9-1.3-18.2-2.9-27.2-2.8
          c-13.2,0.1-26.4,1.5-39.6,2.6c-5.1,0.4-10.1,1.1-15.1,1.9c-19.2,3.1-37.5,9.2-55.7,15.7c-6.7,2.4-12.9,5.9-19.2,9.2
          c-1.9,1-3.4,2.9-4.9,4.3c6.3,13.9,53.7,100.1,56.9,103.6c0.1,0.1,0.6-0.1,1.3-0.2c0.3-0.7,0.9-1.5,0.9-2.4
          c-0.1-6.4,2.5-11.9,5.2-17.4c4.3-8.8,11-15.5,18.9-21c6.1-4.2,12.5-8.3,20.5-7.6c0.5,0,1-0.8,2-1.6c-1.1-2.2-2.4-4.5-3.3-6.9
          c-2.8-7.2-3-14.6-1.1-22c1.5-5.9,5.8-9.8,10.9-12.8c0.5-0.3,0.8-1,1.2-1.6c0.1-12.5,6.1-18.9,17.4-18.3c6.9,0.3,10.6,3.1,12.4,9.9
          c1,3.5,1.3,7.3,1.9,10.8c14.4,9.3,15.8,23.8,9,38.9c1.5,0.6,3.1,0.9,4.5,1.7c6.2,3.4,12.4,6.9,18.5,10.4
          c9.3,12.1,19.6,23.6,20.9,39.9c0,0.5,0.8,0.9,1.2,1.4c0.3,0,0.9,0.1,1-0.1c20.4-33.6,39.8-67.7,61.2-100.7c0.2-0.2,0.1-0.6,0-1
          C509.9,126.9,509.8,126.6,509.5,125.5z"/>
        <path d="M381.6,141.4c-8.4-0.7-17,6.8-17.3,15.2c-0.4,8.8,6.8,15.8,15.4,14.9c8.5-0.8,15.7-10.8,13.8-19.3
          C392.4,146.3,387.4,141.9,381.6,141.4z M383,159.2c-1.1-0.2-2.3-0.1-2.9-0.6c-1.1-1.1-1.9-2.5-2.5-3.9c-0.1-0.3,1.1-1.6,1.9-1.7
          c2.4-0.4,3.8,1,4.2,3.2C383.9,157,383.3,158,383,159.2z"/>
        <path d="M377.4,138.3c2.5-0.1,4.8-2.8,4.8-5.6c0-3.3-2.5-6.1-5.5-6.1c-3,0-5.6,2.9-5.3,6.2C371.6,135.8,374.4,138.4,377.4,138.3z"/>
        <path d="M543.6,139.9c-1.2-1.1-2.7-1.9-4.4-3.1c-1.7,2.6-3.2,4.8-4.5,7.1c-2.7,4.7-5.1,9.6-7.9,14.2c-5.8,9.9-11.5,20-17.8,29.6
          c-10.9,16.7-19.6,34.9-32.5,50.4c-1,1.2-2,2.8-0.2,4.3c23.2-5.9,44.4-3.8,61.6,15.4c1.8-2,3.6-3.9,5.4-5.9
          c6.1-6.6,13.7-8.8,22.2-7.1c3.5,0.7,6.7,2.7,9.9,4c3.5-2.2,6.8-4.6,10.3-6.5c1.4-0.8,3.3-1.2,4.8-0.8c9.8,2.2,14.4,11.5,10.3,20.3
          c-1.5,3.2-4,5.4-7.1,7c-2.1,1-4.2,1.9-6.4,2.9c-0.1,2.8,0,5.1-0.4,7.5c-1.8,11.2-10.2,23.5-24.3,22.9c-1.3,0-2.5,0.4-3.9,0.7
          c-0.5,3.7-1.3,7.1-1.3,10.4c0,6.6-2,12.7-4.5,18.6c-4.1,9.4-9.2,18.1-15.7,26c-1,1.2-2.6,2.3-2,4.2c0.2,0.4,0.4,0.8,0.6,0.8
          c42.4-0.6,84.7-3.2,127.1-2.3c0.9,0,1.9-0.5,4-1c0-2.3,0.3-4,0-5.6c-1.9-9.3-3.2-18.8-5.9-27.8c-5.6-18.5-12.3-36.6-17.9-55
          c-4.6-15.1-11.5-28.9-20.1-42.1c-5-7.7-10-15.4-15.4-22.8c-6.6-9-13.4-18-20.6-26.5C574,165,558.2,153.1,543.6,139.9z"/>
        <path d="M563.6,285.6c9,0.3,17.3-6.7,17.4-14.7c-0.3-10.1-6.1-14.5-14.2-15.1c-8.6-0.6-15.7,6.1-16,14.6
          C550.4,278.9,555.9,285.4,563.6,285.6z M562.2,270.3c0.6-1.5,2.2-2.7,4-4.6c1.4,1.8,2.7,2.9,3,4.1c0.5,2.4-0.9,3.8-3.1,3.9
          C563.7,273.7,561.5,272.1,562.2,270.3z"/>
        <path d="M586.3,263.8c3.2,0.1,6.1-2.2,6.3-5.2c0.2-3-2.1-6.1-5.1-6.5c-3.3-0.5-6.5,2.3-6.7,5.9C580.6,261.1,582.9,263.6,586.3,263.8
          z"/>
        <path d="M119.8,365.1c24.8,0.1,49.5,0.1,74.3,0.1c6.1,0,12.2,0.2,18.3,0.2c1.6,0,3.4-0.4,3.4-2.4c-3.4-4-7.5-7.4-9.9-11.7
          c-7-13-11.1-26.9-9.6-42c0.4-3.6,1.6-7.1,2.4-10.7c-4.4,0-8.4,0.2-12.4,0c-12.1-0.8-21.3-10.6-21.5-22.7c0-2,0.3-4,0.5-6.6
          c-0.9-0.5-2-1.1-3.2-1.6c-8.1-3.9-11.3-10.5-8.6-18.1c3.3-9.4,10.7-13.9,19.7-11.3c3.5,1,6.8,2.8,10.6,4.4
          c6.9-5.1,14.9-5.4,22.8-2.1c8.1,3.4,13,10.3,16.6,18.3c3.4-3.1,6.3-6,9.5-8.5c2.4-1.9,4.9-3.9,7.7-4.8c11.3-3.5,22.5-7.8,34.7-6.5
          c0.8,0.1,1.7-0.5,3.1-0.9c-1.5-3.3-2.7-6.5-4.4-9.3c-9.3-14.9-18.3-30.1-27.2-45.3c-7.5-12.9-15.5-25.5-23.3-38.2
          c-1.8-2.8-3.7-5.6-5.7-8.5c-5.2,2.4-9.2,5.5-13,8.9c-10.6,9.6-21.2,19-30.2,30.2c-5.5,6.9-11.3,13.5-17.2,20
          c-14.1,15.4-24.7,33.2-34.5,51.4c-8.9,16.4-15.9,33.7-21.6,51.5c-5.9,18.1-10.8,36.4-12.1,55.5c-0.2,3.4-0.1,6.7,2.8,10.3
          C100.9,364.6,110.4,365,119.8,365.1z"/>
        <path d="M192.6,250.9c-8.4,0.3-15.4,6.9-16.4,15.3c-1,9.1,6.7,16.8,15.5,15.5c7.6-1.1,14.8-9.3,14.9-17
          C206.8,256.3,200.9,250.6,192.6,250.9z M191.9,269.6c-2.9,0.1-4.9-1.6-4.7-3.9c0.2-2.1,1.8-3.9,3.8-4.1c2.3-0.2,4.4,1.7,4.7,4.2
          C195.8,268,194.3,269.6,191.9,269.6z"/>
        <path d="M164.3,253.7c-0.1,2.9,2.3,5.4,5.6,5.8c3.5,0.4,5.7-1.6,5.9-5.1c0.1-3.1-1.7-5.7-4.2-5.8
          C167.9,248.3,164.5,250.7,164.3,253.7z"/>
        <path d="M255.6,639.4c12.7,5.7,25.7,10.6,39.3,13.6c10.2,2.3,20.8,3.4,30.8,6.4c17.1,5,34.8,5.3,52.3,7c7,0.7,14.1,0.8,21.2,1
          c21.4,0.5,41.5-5.9,61.4-12.6c13.7-4.6,26.8-11.2,40.2-17c3.7-1.6,6.7-4.3,9.7-7.6c-2.5-4.3-4.9-8.3-7.3-12.4
          c-6.1-10.2-12-20.5-18.3-30.5c-8.3-13.2-16.2-26.6-22.8-40.8c-3.1-6.7-7.4-12.9-11.2-19.3c-1-1.7-2.2-3.5-5.4-3.2
          c-0.8,1.8-1.6,3.8-2.6,5.9c-1.5,3.4-2.5,7.2-4.8,10c-6.3,7.5-13,14.6-19.9,21.7c-3.5,3.6-7.9,6.3-12.6,8.3c-4.2,1.8-8,4.6-12.5,7.2
          c1.8,3.1,3.4,5.6,4.8,8.2c5.3,9.3,3.5,16.4-5.6,22.4c-1.6,1.1-3.1,2.3-4.8,3.6c0.4,1.7,0.6,3,1.2,4.2c3.3,7-0.6,14-6.4,17.2
          c-5.5,3.1-10.8,4.2-16.3,0.9c-5.7-3.4-7.9-10.6-6.1-17.8c0.4-1.5,0.6-3,0.8-4.3c-1.1-0.7-1.7-1.2-2.3-1.4c-7-1.8-9.8-6.6-10-13.5
          c0-2-0.1-4.1,0-6.1c0.2-5.2,2.2-9,7.6-10.7c1.2-0.4,2.1-2,2.9-2.9c-4.9-2.9-9.5-5.1-13.5-8c-4.4-3.2-8.2-7.1-12.3-10.5
          c-11.1-9.3-16.3-21.4-16.7-35.6c-0.1-4.2-1.6-7-6.1-9.7c-21.5,40.6-44.6,79.1-67.4,118.2C246.4,635.2,251.1,637.4,255.6,639.4z"/>
        <path d="M372.9,605.4c9.5,0,15.1-7.4,16.1-15.4c0.9-7.3-6.3-14.5-13.8-14.6c-8.3,0-15.5,6.3-15.9,14.1
          C358.7,598.1,364.8,605.2,372.9,605.4z M370.3,589.7c0.3-1.3,1.8-2.4,3.3-4.3c1.5,1.6,3,2.6,3.5,3.9c0.8,1.8-0.9,4.5-2.6,5
          C372.6,594.7,369.9,592.1,370.3,589.7z"/>
        <path d="M373.7,609.3c-3.5,0.2-6.6,3.6-6,6.8c0.5,2.6,4.1,5.5,6.7,5.2c2.8-0.2,5.3-3.4,5.2-6.5C379.5,611.4,377,609.1,373.7,609.3z"
          />
        <path d="M537.4,617.2c6.8-3.3,13.2-7.7,19.1-12.8c11.3-9.7,22.4-19.7,32.5-30.8c9.8-10.8,19.2-21.8,27.4-34
          c4.9-7.4,9.2-15,13.5-22.7c8.9-16,17.5-32.1,22.9-49.7c5.8-18.8,10.2-37.9,13.4-57.3c0.9-5.3,0.9-10.7-1.4-15.6
          c-29.2-4.5-111-8-125.5-5.3c0.7,1.3,1,2.6,1.9,3.3c2.3,1.9,4.8,3.7,7.4,5.4c4,2.6,8,5.5,9.9,10c3.8,8.7,8,17.2,7.2,27.2
          c-0.5,6.7-0.6,13.5-0.8,20.3c-0.1,2.3,0,4.6,0,7.5c1.8,0.3,3.4,0.5,5,0.8c6.1,0.9,10.3,3.9,13.6,9.4c3.7,6.3,6.1,12.7,5.3,20.1
          c2.7,1,5,1.5,7.1,2.6c6.4,3.2,8,10.3,4.5,16.3c-4.3,7.2-16.1,7.9-20.1,1.9c-0.9-1.3-1.9-2.5-2.9-3.8c-8.8,6.3-11.8,6.7-20.1,6.1
          c-8.2-0.7-13.5-5.3-17.3-11c-8.1,2.6-15.5,5-22.9,7.3c-7.9,2.5-16.1,2.7-24.2,1.4c-7.5-1.2-14.9-3.4-22.4-5.1
          c-2.1,2.6-0.4,4.6,0.8,6.5c10,16.1,19.9,32.2,30.1,48.2c10,15.7,20.9,30.9,29.3,47.6C532.2,613.5,533.4,616.7,537.4,617.2z"/>
        <path d="M567.2,505.2c8.2-0.3,14.8-7.7,14.5-16.3c-0.3-8.2-6.2-13.9-14.4-13.4c-10.9,0.6-15.2,7-15,15.3
          C552.4,499,559.2,505.5,567.2,505.2z M567.3,485.5c2.6-0.1,4.5,1.7,4.8,4.3c0.2,2.1-1.2,3.7-3.6,4c-3.4,0.5-5.9-1.2-5.8-3.9
          C562.7,487.5,564.7,485.6,567.3,485.5z"/>
        <path d="M586.7,507.9c2.9,0.1,6-2.7,6.2-5.4c0.2-2.9-3.5-6.5-6.5-6.4c-2.2,0-4.9,3.1-4.9,5.5C581.5,504.8,584,507.8,586.7,507.9z"/>
        <path d="M106.6,480.5c6.3,14.2,12.6,28.5,19.4,42.5c5.6,11.7,14.1,21.5,22.1,31.6c10.8,13.5,20.9,27.5,33.8,39.1
          c4,3.6,7.3,8,11.2,11.8c4.4,4.2,8.9,8.4,13.7,12.1c2.3,1.8,5.4,2.7,8.3,3.4c2.4,0.6,4.4-0.5,5.8-3c5.1-9.6,10.1-19.2,15.6-28.5
          c7.9-13.4,15.9-26.8,24.6-39.7c6.7-9.9,12.4-20.2,18-30.6c1.6-3,3.6-6.4,2.9-10.9c-25.2,6.5-47.3,2.3-65.5-16.4
          c-3.2,3.2-6,6.5-9.3,9.3c-3.3,2.8-7,5.3-10.7,7.7c-2.8,1.9-6,4-9.5,2.8c-6.6-2.3-13.1-2.4-19.7-0.2c-0.9,0.3-2,0-3,0
          c-6.6-0.6-11.8-4-12.9-8.3c-1.3-5.1,1.3-10.6,7.3-14.4c2.8-1.8,5.8-3.3,9-5c-1.1-8.9,3.3-15.4,8.7-21.8c6.3-7.5,14.9-6.7,23.2-7.3
          c-0.9-4.9-2-9.2-2.3-13.6c-0.3-4.7-0.1-9.5,0.7-14.1c0.7-4.3,2.1-8.6,3.8-12.6c1.9-4.3,4.4-8.4,7.2-12.2c2.6-3.4,5.9-6.2,9.3-9.7
          c-5.2-3.4-10.3-2.9-15.2-2.9c-32.2-0.1-64.4-0.1-96.6-0.2c-6,0-12.1,0-18.8,0c-1,6.2,0.4,10.7,1.5,15.3c1.2,4.9,2.6,9.9,2.6,14.9
          c0,15.5,4.2,30.1,8.6,44.7C102.2,469.9,104.3,475.3,106.6,480.5z"/>
        <path d="M201.2,467.4c-6.3-4.1-15.7-2.4-21.2,3.7c-5.6,6.3-6.1,15.4-0.7,21.2c2.5,2.7,5.6,4.8,7.9,6.7c5.9-0.4,9.9-2.8,13.8-5.6
          c6.4-4.7,7.3-19.1,1.8-24.8C202.3,468.2,201.7,467.8,201.2,467.4z M191.8,485.3c-3,0.2-5.4-1.9-5.3-4.7c0-1.9,1.7-3.5,3.9-3.8
          c3.4-0.4,5.8,1.3,5.8,3.9C196.1,483.3,194.4,485.1,191.8,485.3z"/>
        <path d="M167.6,488.5c-3.9,0.1-7.1,4.1-6.7,8.4c0.3,3.3,3,5.4,6.3,5c3.8-0.5,6.7-4.1,6.4-7.7C173.4,491.3,170.4,488.4,167.6,488.5z"
          />
        <path d="M511.5,396.8c-1.2,0.4-2.2,2.3-2.7,3.7c-0.4,1.3,2.5,3.1,3.7,2.4c1.3-0.8,2.2-2.2,3.8-3.9
          C514.1,397.9,512.5,396.4,511.5,396.8z"/>
        <path d="M457.6,485.5c-0.4,2.1,2,4.2,3.7,3.3c1.2-0.7,2.1-2.2,3.8-4.1c-2.3-0.8-3.7-1.7-5.1-1.6
          C459.1,483.1,457.8,484.5,457.6,485.5z"/>
        <path d="M493.9,448.7c-2.3-0.3-4,1-4.2,3.2c-0.2,1.9,0.7,3.1,2.4,3.6c1.8,0.5,3.5-1,3.9-3.3C496.2,450.4,495.6,449.1,493.9,448.7z"
          />
        <path d="M477.6,469c-1.6-0.1-3.7,1.7-3.2,3c0.4,1.3,1.7,2.4,3.2,4.2c1.5-1.8,3.2-2.9,3.3-4.2C481.1,470.3,479.6,469.1,477.6,469z"/>
        <path d="M505.3,425c-1.7,0.3-3.4,1.2-3.2,3c0.1,1.3,1.4,2.4,2.7,4.4c1.5-1.8,2.7-2.9,3.2-4.2C508.5,426.6,506.8,424.7,505.3,425z"/>
        <path d="M388.4,250.4c1.6-0.6,3-2,5.2-3.5c-1.7-1.3-2.6-2.3-3.7-2.6c-2.4-0.6-4.2,0.7-4.4,2.8C385.4,248.7,387.1,250.9,388.4,250.4z
          "/>
        <path d="M409.1,252.2c1.5-0.9,2.6-2.5,4.6-4.5c-2.2-1.1-3.5-2.3-4.9-2.3c-1.9,0-2.8,1.5-2.8,3.5C406,250.4,408.1,252.8,409.1,252.2z
          "/>
        <path d="M363.6,250.7c1.4,0,2.8-1.1,3.8-1.5c0.4-2.5-1.5-4.9-3.5-4.8c-1.1,0.1-2.5,1-3,2C360,248.4,361.4,250.7,363.6,250.7z"/>
        <path d="M333.4,252.5c-1.3,1.8-2.8,3-2.8,4.2c0,1.2,1.3,2.8,2.5,3.5c1.5,0.8,3.9-1.5,3.4-3.5C336.1,255.4,334.8,254.3,333.4,252.5z"
          />
        <path d="M432.9,256.4c1.3-0.2,2.5-1.3,4.4-2.5c-1.6-1.2-2.4-2.3-3.5-2.6c-1.6-0.6-3.6,1-3.1,2.5C431,254.8,432.2,256.4,432.9,256.4z
          "/>
        <path d="M330.8,497.3c-2.6-0.1-4.5,1.9-4.4,4.5c0.1,2.2,1.8,4,3.8,3.9c2.4-0.1,4.4-2.2,4.5-4.6C334.8,499.1,333,497.4,330.8,497.3z"
          />
        <path d="M414,500.9c-1.4,2-2.9,3.1-3,4.4c-0.2,2.1,1.1,3.8,3.4,4.2c1.9,0.4,4.1-1.7,3.5-3.7C417.3,504.2,415.7,503,414,500.9z"/>
        <path d="M356.7,507.7c-1.3,0.5-2.3,1.8-3.2,2.4c0.3,3.2,2.9,6,4.4,5.3c1.9-0.9,3-2.6,3-4.8C361,508.6,358.8,506.9,356.7,507.7z"/>
        <path d="M384.8,511.1c0.2,1.6,2.2,3.2,3.6,2.4c1.2-0.7,2.1-2,3.8-3.8c-2.2-1-3.5-2.2-4.8-2.1C385.6,507.7,384.5,509.2,384.8,511.1z"
          />
        <path d="M436.8,500.4c-0.7-0.6-1.6-1.9-2.8-2.5c-1.3-0.6-3.5,1.4-3.1,2.8c0.3,1,1.3,2.2,2.3,2.6
          C434.9,504.1,436.6,502.9,436.8,500.4z"/>
        <path d="M251.6,392.4c0.3-2.4-0.9-4.3-2.7-4.5c-2-0.3-3.7,1.3-3.8,3.5c-0.1,2.2,1.4,4,3.4,4.1C250.4,395.6,251.3,394.2,251.6,392.4z
          "/>
        <path d="M251.9,413.9c-0.6,0.8-2,1.8-2.3,3c-0.4,2.1,1.4,4.3,3.2,3.9c1.4-0.3,3.1-1.2,3.9-2.4C257.7,416.9,255.2,414.3,251.9,413.9z
          "/>
        <path d="M296,481.8c1.3-0.1,2.6-1.1,4.8-2.2c-1.9-1.9-3-3.7-4.4-4.2c-0.9-0.3-2.8,1.3-3.5,2.5C292,479.4,293.9,481.9,296,481.8z"/>
        <path d="M265.1,438.7c-1.8-0.6-3.2,0.4-3.6,2.4c-0.3,1.8,0.8,3.7,2.5,3.5c1.4-0.1,2.7-1.2,5-2.2
          C267.3,440.7,266.4,439.2,265.1,438.7z"/>
        <path d="M278.3,456.7c-1.8,0.4-2.9,1.4-2.8,3.3c0.1,1.7,1.8,3.2,3.3,2.6c1.3-0.5,2.2-1.9,2.9-2.5
          C281.6,457.6,280.1,456.3,278.3,456.7z"/>
        <path d="M277.7,295.8c0.9-0.8,2.6-1.6,3.1-2.8c0.8-1.7-0.5-3.2-2.2-3.9c-1.5-0.6-3.4,0.6-3.7,2.4
          C274.7,293.2,275.1,294.8,277.7,295.8z"/>
        <path d="M296.7,276.9c1.1-0.1,2.4-1.2,2.9-2.3c0.7-1.6-1.4-4-4-4.3c-0.5,0.6-1.7,1.4-2.1,2.4C292.8,274.6,294.8,277.1,296.7,276.9z"
          />
        <path d="M255.8,338c1.7-0.2,2.8-2.8,1.8-4.9c-0.5-1-1.6-1.7-3.2-3.3c-0.9,2.3-1.9,3.7-1.9,5.1C252.6,336.5,253.7,338.1,255.8,338z"
          />
        <path d="M247.2,361.2c1.4-0.3,2.5-1.5,4.5-2.8c-1.9-1.5-2.9-2.9-4.2-3.2c-1.9-0.5-2.9,1.2-3.3,2.9
          C243.8,359.6,245.7,361.6,247.2,361.2z"/>
        <path d="M264.9,317.9c1.5,0.2,3.6-1.4,3.2-2.8c-0.4-1.3-1.6-2.4-3-4.3c-1.4,1.8-2.9,2.8-3.1,4C261.7,316.4,263,317.7,264.9,317.9z"
          />
        <path d="M481.7,291.7c1.7-0.2,3.4-1.6,5.3-2.6c-1.1-1.9-1.7-3.6-2.9-4.6c-1.7-1.4-3.8-1.1-5.4,0.5c-1.3,1.3-2.1,3-1,4.4
          C478.7,290.6,480.4,291.8,481.7,291.7z"/>
        <path d="M508,340.6c2.3,0,4.1-2.1,3.9-4.6c-0.2-2.1-1.9-3.5-4-3.3c-2.2,0.2-3.7,1.3-4,3.5C503.5,338.4,505.7,340.6,508,340.6z"/>
        <path d="M461.9,266c-1.4,0.2-2.6,1.6-3.5,2.2c-0.2,3,2.1,5.5,4.4,5.1c1-0.2,2.3-1.5,2.6-2.5C466.1,268,464.3,265.5,461.9,266z"/>
        <path d="M496.2,312.6c1.8,0.3,3.8-1.5,4-3.7c0.2-2.4-1-3.8-3.2-4.5c-1.6-0.5-3.5,0.8-3.7,2.4C492.9,309.7,494.2,312.3,496.2,312.6z"
          />
        <path d="M515.9,364.7c0.6-1,2-2.4,2.4-4c0.4-2-1.5-3.7-3.6-3.7c-2,0-3.4,1.7-3.2,4C511.7,363.3,513.2,365,515.9,364.7z"/>
        <path d="M454,434.7c-13.4-8.9-25.8-19.4-39.8-27.3c-4.9,5.5-5,5.5-2.6,9.7c4.7,8.2,9.5,16.3,14.3,24.5c3.3,5.5,6.8,10.7,11,15.8
          c8.9-3.9,13.9-11.1,19.5-18.9C455.4,436.9,454.9,435.4,454,434.7z"/>
        <path d="M330,385.9c-1.3,0-2.7,0.1-4.1,0.2c-13.5,1-27,2-40.5,3.1c-1.6,0.1-3.2,0.6-5.1,0.9c-0.9,10.5,2,19.5,7.6,28.4
          c15.9-8.7,31.2-17.1,47.2-25.8C333.9,386.8,333.2,386,330,385.9z"/>
        <path d="M469.3,416.6c4.9-9,7.4-18.5,8-29.1c-2.5-0.4-4.4-1-6.3-1.1c-11.5-0.3-23,0-34.3-2.8c-4.6-1.1-9.3-1.1-14.3,1
          c-0.9,2.7-1.8,5.5-3,9c15.5,9.6,31.5,15.1,46.5,22.8C466.7,416.8,467.9,416.5,469.3,416.6z"/>
        <path d="M339.5,406.3c-13.7,10.2-28.2,19.4-42.3,29.7c2.2,8,6.2,14.1,12,19c1.4,1.2,3.5,1.5,5.4,2.4c10.9-15.4,21.5-30.2,31.8-44.7
          C345.6,408.4,342.7,407.4,339.5,406.3z"/>
        <path d="M371.5,476.6c-0.3-9.4,0.2-17.9-0.9-26.2c-1.2-8.7,1.6-17.4-0.8-26.3c-2.8-0.7-5.3-1.3-7.8-1.9c-4.6,4.9-6.3,10.9-9.3,16.2
          c-2.8,5-5.4,10.1-7.6,15.4c-2.3,5.4-7.3,9.6-8,16.5C347.9,475.2,358.7,478.1,371.5,476.6z"/>
        <path d="M467.1,339.6c-8.3,4.5-16.9,8.3-25.9,11.2c-5.4,1.7-10.6,4.3-15.8,6.8c-4.9,2.3-5,3.6-1.7,9.2c16.5-0.7,33-1.3,49.5-2
          c2.7-0.1,5.4-0.4,7.3-3.5c-1.7-7.9-5.1-15.6-8.5-23.7C470.2,338.4,468.6,338.8,467.1,339.6z"/>
        <path d="M437.5,300.4c-8.8,15.2-19.8,28.9-28.8,44.5c1.9,1.5,3.4,2.7,4.6,3.7c16.7-8.8,32.7-17.3,49.1-26.1
          c-4.1-10.8-12.6-17.4-20.8-25.3C439.6,298.8,438.1,299.3,437.5,300.4z"/>
        <path d="M312.6,366.8c5.7,0.3,11.5,0.6,17.2,0.7c4.1,0,4.6-1.1,4-7.3c-16.2-5.2-30.3-15.4-45.8-21.9c-7,6.4-7.8,8.9-9.2,26.4
          c2.2,0.2,3.8,0.5,5.5,0.6C293.7,365.7,303.1,366.3,312.6,366.8z"/>
        <path d="M342.3,350.1c1.6-2.4,2.9-4.6,4.4-6.9c-5.5-8.1-10.2-15.1-14.9-22.2c-4.6-6.9-6.3-15.7-13.8-21.2c-4.9,1.7-9,4.4-12.5,8.2
          c-3.8,4.1-8,8-10,13.3C311.3,331,326.5,340.3,342.3,350.1z"/>
        <path d="M395.5,277.8c-1.9-0.3-3.4,0.3-4.2,2c-0.6,1.2-1.1,2.5-1.2,3.8c-1.9,15.7-3.6,31.4-5.4,47.2c-0.1,0.5,0.6,1.1,1.3,2.2
          c2.2,0.2,4.8,0.4,7.9,0.7c8.3-14,15.6-28.4,23.2-42.6c0.6-1.1,0.6-2.5,0.8-3.7c-7.1-3.1-13.8-6.1-20.6-9
          C396.9,278,396.2,277.9,395.5,277.8z"/>
        <path d="M397.5,427.3c-1-1.7-2.3-3.4-3.9-4.5c-1.2-0.9-3.3-1.6-4.6-1.1c-1.2,0.4-2.2,2.4-2.6,3.8c-0.4,1.6-0.3,3.4,0,5
          c1.6,9.4,0.8,18.9,0.9,28.4c0.1,4.7,0.4,9.5,0.8,14.2c0.2,2.2,2.1,3.7,4.3,3.3c9.7-1.5,19.1-4.2,28.2-8.8c0-1.5,0.1-1.9,0-2.1
          C412.9,452.8,405.3,440,397.5,427.3z"/>
        <path d="M350.2,317.3c3.1,5.9,6.4,11.7,9.6,17.6c3.6,0.2,6.9,1.1,10.2-1.2c0.4-1.2,0.9-2.5,1.1-3.8c1.5-11.8,2.9-23.5,4.2-35.3
          c0.4-3.7,0.7-7.4,0.6-11.2c0-1.9-1-3.7-1.8-6.6c-12.8,1.7-24.6,4.7-35.1,10.8c-1.3,4.5,0.2,7.5,1.7,10.6
          C343.8,304.6,346.9,311,350.2,317.3z"/>
        <path d="M367.3,345.3c4.1,5.4,4.8,11.9,10.9,17.4c2.5-6.5,6.8-10.9,8.3-17.4C380.4,341.9,374.6,341.8,367.3,345.3z"/>
        <path d="M391.7,384.1c1.3,6.2,3.7,11.4,7.4,16.1c7.2-4.2,7.9-5.2,10.5-16.2C403.2,384.2,397.7,382.6,391.7,384.1z"/>
        <path d="M356,401.9c2.1-7,7.7-11.1,9.1-18c-6.9-1-13-0.5-19.7,0.8C346.4,391.8,348,397.9,356,401.9z"/>
        <path d="M369.5,408.5c7.7,4.6,12.7,4.6,19-0.5c-4.5-4.6-5.8-11.7-12.2-15.3C372,397.5,370.9,403.1,369.5,408.5z"/>
        <path d="M364.2,370.2c-2.8-5.8-5-11.3-9.4-16.7c-5.6,4.5-9.3,9-10,16.1C351.2,369.9,356.9,372.2,364.2,370.2z"/>
        <path d="M410.4,368.3c-2.4-5.8-4.2-11-10.3-13.5c-3.4,4.6-6.6,8.7-10,16C398,369.1,403.9,369.9,410.4,368.3z"/>
        <path d="M0,0v758h758V0H0z M746,746H12V12h734V746z"/>
        <path d="M87.4,137.2c6.4,5.5,14.7,8.6,23.2,8.6c19.7,0,35.8-16.1,35.8-35.8c0-9.6-3.9-18.7-10.5-25.3c9.6-18.6,14.6-39.3,14.6-60.7
          v-7.4h-7.4h-128v132.8v7.7l7.7-0.3C46,156,68.1,149.2,87.4,137.2z M139.9,110c0,16.1-13.1,29.3-29.3,29.3c-6.4,0-12.5-2.1-17.5-5.8
          c3.7-2.6,7.3-5.3,10.8-8.3c2.5,5.4,8.1,8.9,14.3,8c7.6-1.1,14.8-9.3,14.9-17c0.1-6.4-3.3-11.2-8.6-13c3-4,5.7-8.1,8.2-12.4
          C137.3,96,139.9,102.8,139.9,110z M117.4,113.3c2.3-0.2,4.4,1.7,4.7,4.2c0.2,2.1-1.3,3.7-3.7,3.8c-2.9,0.1-4.9-1.6-4.7-3.9
          c0.1-0.8,0.3-1.5,0.7-2.1c0.4-0.4,0.8-0.8,1.2-1.2C116.1,113.6,116.7,113.3,117.4,113.3z M30,31.5h105.5
          c-3.5,57.7-48,104.1-105.5,110V31.5z"/>
        <circle cx="141.7" cy="83.1" r="3.6"/>
        <circle cx="150.5" cy="99.4" r="3.6"/>
        <circle cx="151.5" cy="108.3" r="3.6"/>
        <circle cx="151.5" cy="116.5" r="3.6"/>
        <circle cx="149.2" cy="125" r="3.6"/>
        <circle cx="144.4" cy="133.5" r="3.6"/>
        <circle cx="146.8" cy="90.4" r="3.6"/>
        <ellipse transform="matrix(0.9949 -0.101 0.101 0.9949 -14.022 9.5345)" cx="87.2" cy="143.3" rx="3.6" ry="3.6"/>
        <ellipse transform="matrix(0.9949 -0.101 0.101 0.9949 -14.6556 11.3069)" cx="104.3" cy="150.3" rx="3.6" ry="3.6"/>
        <ellipse transform="matrix(0.9949 -0.101 0.101 0.9949 -14.7099 12.3091)" cx="114.2" cy="151.4" rx="3.6" ry="3.6"/>
        <ellipse transform="matrix(0.9949 -0.101 0.101 0.9949 -14.4769 13.2281)" cx="123.4" cy="149.6" rx="3.6" ry="3.6"/>
        <ellipse transform="matrix(0.9949 -0.101 0.101 0.9949 -14.0161 14.0355)" cx="131.7" cy="145.5" rx="3.6" ry="3.6"/>
        <ellipse transform="matrix(0.9949 -0.101 0.101 0.9949 -13.5293 14.7393)" cx="138.7" cy="140.9" rx="3.6" ry="3.6"/>
        <ellipse transform="matrix(0.9949 -0.101 0.101 0.9949 -14.4231 10.3407)" cx="94.9" cy="147.6" rx="3.6" ry="3.6"/>
        <path d="M621.2,88.3c-5.5,6.4-8.6,14.7-8.6,23.2c0,19.7,16.1,35.8,35.8,35.8c9.6,0,18.7-3.9,25.3-10.5c18.6,9.6,39.3,14.6,60.7,14.6
          h7.4V144V16H609h-7.7l0.3,7.7C602.5,46.9,609.3,69,621.2,88.3z M648.4,140.8c-16.1,0-29.3-13.1-29.3-29.3c0-6.4,2.1-12.5,5.8-17.5
          c2.6,3.7,5.3,7.3,8.3,10.8c-5.4,2.5-8.9,8.1-8,14.3c1.1,7.6,9.3,14.8,17,14.9c6.4,0.1,11.2-3.3,13-8.6c4,3,8.1,5.7,12.4,8.2
          C662.4,138.1,655.6,140.8,648.4,140.8z M645.2,118.3c0.2,2.3-1.7,4.4-4.2,4.7c-2.1,0.2-3.7-1.3-3.8-3.7c-0.1-2.9,1.6-4.9,3.9-4.7
          c0.8,0.1,1.5,0.3,2.1,0.7c0.4,0.4,0.8,0.8,1.2,1.2C644.9,117,645.1,117.6,645.2,118.3z M727,30.9v105.5
          c-57.7-3.5-104.1-48-110-105.5H727z"/>
        <circle cx="675.4" cy="142.6" r="3.6"/>
        <circle cx="659" cy="151.3" r="3.6"/>
        <circle cx="650.2" cy="152.3" r="3.6"/>
        <circle cx="641.9" cy="152.3" r="3.6"/>
        <circle cx="633.4" cy="150.1" r="3.6"/>
        <circle cx="624.9" cy="145.2" r="3.6"/>
        <circle cx="668.1" cy="147.7" r="3.6"/>
        <ellipse transform="matrix(0.9949 -0.101 0.101 0.9949 -5.7469 62.5649)" cx="615.1" cy="88.1" rx="3.6" ry="3.6"/>
        <ellipse transform="matrix(0.9949 -0.101 0.101 0.9949 -7.5145 61.9789)" cx="608.1" cy="105.2" rx="3.6" ry="3.6"/>
        <ellipse transform="matrix(0.9949 -0.101 0.101 0.9949 -8.5195 61.8851)" cx="607" cy="115.1" rx="3.6" ry="3.6"/>
        <ellipse transform="matrix(0.9949 -0.101 0.101 0.9949 -9.4383 62.1044)" cx="608.8" cy="124.3" rx="3.6" ry="3.6"/>
        <ellipse transform="matrix(0.9949 -0.101 0.101 0.9949 -10.2481 62.5664)" cx="613" cy="132.5" rx="3.6" ry="3.6"/>
        <ellipse transform="matrix(0.9949 -0.101 0.101 0.9949 -10.9441 63.1025)" cx="617.5" cy="139.6" rx="3.6" ry="3.6"/>
        <ellipse transform="matrix(0.9949 -0.101 0.101 0.9949 -6.5538 62.2001)" cx="610.8" cy="95.8" rx="3.6" ry="3.6"/>
        <path d="M142.7,605.8c0.3,6.5,7.7,11.8,15.8,11.2c3-0.2,5.6-2.1,7.2-4.9c56.4,51.2,131.3,82.4,213.2,82.4c82.9,0,158.4-31.9,215-84
          c3,3,7.7,4.9,12.7,4.6c5.3-0.4,9.3-5.9,9-12.6c-0.2-4.2-1.8-7.3-4.4-9.2c53-56.8,85.4-132.9,85.4-216.5c0-82.4-31.5-157.5-83.1-214
          c1.2-1.8,2-4.1,2.1-6.8c0.3-6.7-3.7-12.2-9-12.6c-3.6-0.3-7.1,0.7-9.9,2.3c-43.8-41.3-99.4-70.4-161-81.6c-0.5-0.2-1-0.4-1.5-0.6
          c0,0.1,0,0.2,0,0.3c-18-3.2-36.4-4.8-55.3-4.8c-83.1,0-158.8,32.1-215.5,84.5c-1.4-1.2-3.1-2-5-2.1c-8.1-0.6-15.5,4.7-15.8,11.2
          c-0.2,3.2,1.1,6.1,3.4,8.4c-52.6,56.7-84.8,132.6-84.8,215.9c0,84.7,33.3,161.7,87.4,218.7C144.9,597.6,142.5,601.5,142.7,605.8z
           M96.1,470c-6.1-16.3-9.4-33.2-11.5-50.3c-0.4-3-0.1-6.1-0.3-9.1c-0.5-6.7-1.2-13.5-1.9-20.2c-0.1-1.3-0.4-2.7-0.4-4
          c0-3.4,2.2-5.9,5.6-6c6.8-0.2,13.6,0,20.3,0c37.6-0.2,75.2-0.5,112.9-0.7c4,0,8-0.5,12.7,0.8c-2.6,5.3-4.4,10.1-8.4,14
          c-3.5,3.4-8.1,6.1-9,11.6c0.1-0.1,0.2-0.1,0.3-0.2c0,0.1,0,0.2-0.1,0.2c1.4-0.6,2.8-1.2,4.8-2c3.9,5.3,7.7,10.7,11.6,16
          c-4,4.9-4.7,5.2-7.8,2.5c-3.6-3.1-6.9-6.4-10.3-9.5c0.7-2.8,1.3-4.9,1.8-7.1c-0.1,0-0.2,0.1-0.3,0.1c0-0.1,0-0.1,0-0.2
          c-4.3,1.9-5.1,6-6,10c0,0,0,0,0,0c-2.1,1.6-1.7,4-1.9,6.2c-0.5,0.3-1.1,0.6-1.2,1c-4.1,13.7-3.2,27.2,2,40.5
          c0.2,0.4,0.6,0.8,1.1,1.1c0,0,0,0,0-0.1c0.1,0.1,0.2,0.1,0.3,0.1c0.1-1.9,0.2-3.8,0.3-6.2c3.4-1.2,6.7-2.3,10.1-3.5
          c3,5,2.9,5.6-0.8,7.8c-3,1.8-6,3.6-9.6,1.9c0,0.1,0,0.1,0,0.2c-0.1-0.1-0.2-0.2-0.3-0.3c0.8,4.1,2.4,7.7,6.1,10
          c0-0.1-0.1-0.1-0.1-0.2c0.1,0.1,0.2,0.1,0.3,0.2c-0.3-1.6-0.6-3.2-1-5.3c1.9-1.3,4-3,6.2-4.2c2.8-1.4,3.7-0.9,6.8,3.4
          c-1.2,2-2.5,4-3.8,6c0,0,0.1,0,0.1,0c0,0.1-0.1,0.2-0.1,0.2c1.4-0.6,2.8-1.3,4.3-1.6c1.5-0.3,3.1-0.1,4.8-0.1
          c-1.3,5.6-1.3,5.7-6.2,11.1c-1.7-1.3-3.3-2.6-4.9-3.8c0.8-2.3,1.5-4,2.1-5.7c-0.1,0-0.2,0.1-0.3,0.1c0.1-0.1,0.1-0.2,0.2-0.3
          c-2.8,0.2-5.5,2.2-8.2,0.1c0,0,0,0.1,0,0.1c-0.1-0.1-0.2-0.1-0.3-0.2c3.1,6.6,7.3,12.1,14.5,14.7c-0.1-0.1-0.2-0.2-0.3-0.3
          c0.1,0,0.3,0.1,0.4,0.1c0.2-5.4,3.2-9,6.8-12.1c2.5,0.5,3.3,2,2.8,3.8c-0.8,3.2-1.9,6.3-3,9.9c-2.6-0.6-4.6-1.1-6.7-1.6
          c0,0.1,0,0.2,0,0.3c0,0-0.1,0-0.1,0c1,1.1,1.8,2.5,3,3.2c13.5,8.2,27.8,10,43,5.9c2.6-0.7,5.2-1.6,7.8-2.4c4.3,2.3,8.7,4.6,13.7,7.2
          c-25.3,42.3-50.6,84.7-76.3,127.5c-2.2-0.6-4.8-0.4-5.9-1.6c-5.1-5.6-12.1-8.4-18-12.8c-9.8-7.3-18.9-15.4-27.6-24
          c-5-5-10.1-10-14.9-15.2c-1.5-1.6-2.8-3.8-3.5-6c-0.5-1.5-1-2.2-2.5-2.6c-3.5-1-5.5-3.7-7.6-6.3c-17.3-22-31.4-45.8-41.5-71.9
          c-0.8-2.2-1.9-4.6-1.7-6.8C99.2,478.9,97.7,474.4,96.1,470z M83.9,346.2c-1.3-17.8,1.8-35.1,7.1-52.1c1.6-5.1,3.2-10.3,4.8-15.4
          c8.1-25.2,21.4-47.5,36.9-68.7c7-9.5,14.2-19,21.7-28.2c14.7-18,31.5-33.6,51.4-45.7c6-3.7,12.3-7,18.9-10.8
          c1.7,2.2,3.4,3.8,4.5,5.8c16.4,27.7,32.7,55.5,49,83.3c5.5,9.4,11,18.7,16.5,28.1c2,3.5,3.9,7,6,10.7c-3.8,2.7-6.9,1.4-9.8,0.1
          c-9.9-4.6-20.2-5.3-30.9-4.3c-11.4,1.1-21.6,5.4-30.7,12.3c-0.7,0.5-1,1.6-1.5,2.4c0.1,0,0.2-0.1,0.3-0.1c0,0,0,0,0,0
          c2.9-1.2,5.8-2.4,8.8-3.6c4.9,3.3,4.4,9.3,8.1,13.8c-2.3,1.3-3.7,2-5.5,3c-5.1-3.3-7.9-8.6-11.4-13.2c-0.1,0-0.2,0.1-0.3,0.1
          c0,0,0-0.1,0.1-0.1c-4.1,1.2-6.3,4-7.5,7.9c0.1,0,0.2-0.1,0.3-0.1c0,0.1,0,0.1,0,0.2c1.9-1.1,3.8-2.1,5.7-3.2
          c4.5,2.3,6.5,6.2,9.3,10.2c-1.2,1.5-2.4,2.9-3.7,4.5c-3.5-2.2-6.7-4.2-9.8-6.2c-2.1-1.3-1.5-3.4-1.4-5.3c-0.1,0.1-0.2,0.1-0.4,0.2
          c0-0.1,0.1-0.2,0.1-0.3c-3.8,1.3-5,4.5-6,7.9c-1.7,0.9-2.2,2.4-2,4.3c-1.1,1.4-2.6,2.7-3.1,4.3c-3.7,11.3-5.7,22.7-2.6,34.5
          c0.4,1.4,1.3,2.7,2,4c0.1,0,0.1,0,0.2,0v-8.4c4.8-2.2,9.5-2,14.1-2.3c1.6-0.1,1.8,0.4,3,4.8c-5.6,2.2-10.5,6.3-17.1,5.9v0.4
          c-0.1-0.1-0.1-0.3-0.2-0.4c0,0-0.1,0-0.1,0c-0.3,3.9,1.2,7.1,3.9,9.8c0.1,1.7,0.1,3.5,2,4.3c0.4,3.6,2.7,5.5,5.8,6.7
          c0-0.1,0-0.1,0-0.2c0.1,0.1,0.2,0.1,0.3,0.1c-0.2-1.3-0.9-2.9-0.4-3.6c3.7-4.7,7.9-8.8,14.4-11.3c0,2,0.4,3.5-0.1,4.4
          c-2,3.5-4.3,6.9-6.7,10.1c-2.1,2.8-2.9,2.8-7.3,0.4c0,0.1,0,0.1,0,0.2c-0.1,0-0.2-0.1-0.3-0.1c0.6,3.8,2.5,6.5,6.3,7.6
          c0-0.1-0.1-0.1-0.1-0.2c0.2,0,0.3-0.1,0.5-0.1c1.5-3,2.4-6.5,6-8.1c0.3-3.2,1.9-5.5,5.3-7c0.6,1.2,1.2,2.4,1.8,3.6
          c-1.6,2.5-3.7,3.8-6.5,3.9c-1.4,3.2-2.7,6.6-6.6,7.6c-0.1,0.1-0.1,0.3-0.2,0.4c0,0-0.1,0-0.1,0c1.8,2.7,3.4,5.4,3.7,8.9
          c0.1,1.8,0.2,3.9,2.2,4.9c0,0,0-0.1,0-0.1c0.1,0,0.2,0,0.3,0c0.1-3.9,0.5-7.9,0.4-11.8c-0.1-4,1.8-6.4,4.9-8.2
          c2.3-1.3,4.7-2.3,7.1-3.4c-7.6-11.8-6-25.4,9.4-28.5c-0.7-2.3-1.6-4.5-2.1-6.7c-1.3-6.1,1.4-10.7,7.3-12.6c1.3-0.4,2.7-0.4,4-0.7
          c0.9-0.2,1.8-0.7,2.7-1c-4.4-14.4,1.6-21.8,18.2-21.8c1.2-4.2,2.5-8.6,3.7-12.9c-0.1,0-0.2,0.1-0.3,0.1c0-0.1,0-0.2,0-0.2
          c-3.3,1-3.5,4.2-4.7,6.7c-0.3,0.6-1.8,1.2-2.4,1c-0.6-0.2-1.5-1.7-1.3-2.3c1.1-3.5,2.2-7,3.8-10.3c1.2-2.4,3.3-1.6,5.6-0.4
          c-0.3,1.7-0.6,3.4-0.9,5.2c0.1,0,0.2-0.1,0.3-0.1c0,0.1,0,0.1-0.1,0.2c1.4-0.6,2.8-1.3,4.2-1.9c5.5-2.6,10.9-1.4,14,3.6
          c4.1,6.5,7.8,13.3,11.6,20c0.9,1.5,1,3.2-0.6,4.5c-1.5,1.2-3.3,1-4.6-0.1c-2.6-2.1-4.8-4.7-7.6-6.6c-3.2-2.2-7.1,0-7,3.9
          c0.1,3.5,0,7.3,3.7,9.3c0,0.9,0,1.8,0.2,2.7c0.3,1.9-0.3,3-2.4,3.1c-1,0-1.9,0.1-2.9,0.2c1.4,2,1.7,4.1,0.4,6.4
          c4.6-2.4,8.3-5.7,10.9-10.2c4-2.3,7.9-4.6,12.5-7.2c7.1,8.1,11.3,18.1,17.1,27.1c5.8,9.1,11,18.6,16.6,28.1
          c-3.8,4.1-7.2,7.8-10.6,11.5c-18.1-9.4-36.4-17.4-53.1-28.5c-2-1.3-4.2-2.2-4.8-4.8c1.3-2,2.7-3.9,4-5.9c2.8-2.4,5.5-4.9,6.2-8.8
          c-6,0.1-8.4-1.3-10.1-5.8c-0.9-2.4,0.9-5.2,3.4-4.7c2.3,0.4,4.5,1.4,6.7,2.2c-2.5-4.9-4.9-6-9.2-4.7c-3,0.9-4.3,4.5-2.9,8.5
          c0.5,1.5,1.4,3.1,2.5,4.3c1.3,1.5,3,2.6,4.2,3.5c-0.4,2.4-0.6,3.9-0.9,5.4c-3.4-1-6.8-2.2-10.3-2.9c-2.3-0.5-5.3,1.3-5.6,3.2
          c-0.4,2.8-1,5.7,1.5,8c1.5,2.1,2.9,4.2,4.8,7c-1.6,0.5-2.8,1-3.9,1.1c-1.3,0-2.7-0.6-4-0.6c-3.3,0-6.1,1.1-7.3,4.4
          c-1.1,3.1-0.2,6,2.3,8.2c1.8,1.5,3.6,2.9,5.2,4.2c0,2.6-1.6,3.3-3.3,3.1c-3.8-0.6-7.4-0.6-10.8,1.5c-3.1,2-4,6.1-1.3,8.7
          c2.1,2,5,3.3,7.5,4.9c1.1,0.7,2.6,0.9,3.6,1.7c0.6,0.5,1,1.9,0.8,2.7c-0.2,0.8-1.1,1.9-1.8,2c-3.7,0.4-7.4,0.5-11.1,0.6
          c-2,0.1-4.1-0.4-6.1-0.1c-6,0.7-11.4-0.1-16-4.3c-0.4-0.3-1-0.3-1.6-0.4c0,0.1,0,0.2,0,0.2c-0.1,0-0.2-0.1-0.3-0.2
          c0,1,0.1,2,0.1,3.1c-0.3,0.3-0.8,1-1.2,1c-49.4,1.4-98.7,1.2-148.6,1.3c-1.8-6-0.9-11.7,0.5-17.1C83.9,353.5,84.1,350,83.9,346.2z
           M610.3,189.2c7.2,8.9,13.8,18.5,20,28.2c10.4,16.3,19.4,33.3,26.2,51.5c7.5,20.4,14.1,40.9,17.2,62.5c1.9,13.4,3.9,26.8,3.1,40.5
          c-3.7,2.7-8,1.8-11.8,1.9c-25.1,0.1-50.2-0.1-75.2-0.2c-19-0.1-38-0.1-56.9-0.2c-1.7,0-3.3-0.2-5.5-0.4c0.4-3.2,1-6.1,1-9
          c0-2.7-0.6-5.3-1-8c1.7-2.3,3.4-4.6,5-6.9c-0.1,0-0.1,0.1-0.2,0.1c0-0.1,0-0.2,0-0.3c-2.8,0.6-5.2-0.5-7.4-2c0,0,0,0.1,0,0.1
          c-0.1,0-0.2,0-0.4,0c-0.4,1-0.9,2-1.4,3.2c-1.1-0.7-2.1-1.4-4.5-3c2.9-0.1,4.5-0.2,6-0.2c0-0.1,0.1-0.2,0.1-0.2
          c0.1,0.1,0.2,0.1,0.2,0.2c-1.1-3.6-4.6-6.8-1.8-11.3c4.1,1.3,6.4,4.9,8.9,7.9c0.9,1.1,0.3,3.5,0.3,5.4c0.1,0,0.2,0,0.4-0.1
          c-0.1,0.1-0.1,0.2-0.2,0.3c1.1-0.6,2.4-1,3.2-1.9c8.9-10.6,14.8-22.5,15.3-36.6c0.8-19.8-5.7-36.4-21.3-49c-1.5-1.2-3.5-1.7-5.3-2.5
          c-0.9-1.8-2.4-2.2-4.3-2c-3.4-4-8.4-4.6-13.1-5.6c-11.8-2.5-23.7-2.1-34.9,2.5c-4.7,1.9-8.5-0.4-12.5,0.2c-0.5-0.7-0.8-1-0.8-1.3
          c-0.1-0.3-0.2-0.8,0-1c25.3-42.3,49.9-85,76.3-127.4c1.9,1,3.6,1.5,4.6,2.6c2.2,2.7,5,4,8.1,5.5c5.4,2.6,10.5,6.2,15.2,10
          c8.4,6.8,17,13.5,24.7,21.1C595.5,171.7,603.1,180.3,610.3,189.2z M283.3,476.1c-18.1,3.1-21.9-5.1-22.1-19.6
          c-2.1-0.5-4.3-1-6.5-1.4c-6.6-1.4-9.9-5.9-8.6-12.5c0.7-3.5,2.3-6.9,3.5-10.2c-12.5-7.5-13.4-10.2-8.8-24.8
          c-0.5-0.5-0.8-1.2-1.4-1.4c-3.9-1.2-6.6-3.5-7.1-7.7c-0.6-4.7-1.2-9.5,2.6-13.4c1.6-1.7,3.1-3.5,4.7-5.3c9.1-0.5,18-0.3,27.2,1.3
          c-2,0.9-4.2,1.6-6,2.8c-2.7,1.7-4.4,4.2-3.9,7.7c0.4,3,2.4,5,6.2,5.7c2,0.4,4.1,0.3,6,0.6c1.8,0.3,2.7,3.7,1.3,5
          c-1.2,1.2-2.9,1.9-3.9,3.1c-1.5,1.7-3.1,3.6-3.9,5.8c-1.5,4.1,1.5,8.2,5.9,8.5c1,0.1,2,0,3-0.1c1.9-0.1,4.3-1.2,5.6,1
          c1.6,2.7-0.8,4.3-2.4,5.9c-2.6,2.6-3.8,5.6-3.1,9.2c0.1,0.7,0.9,1.3,1.4,1.9c0.1,0,0.3,0,0.4,0c0.6-2.5,0.9-5.1,2-7.2
          c0.8-1.5,2.9-2.3,4.7-3.6c1.1,1.5,2,2.5,2.5,3.7c0.6,1.1,0.8,2.4,1.2,3.4c-2.6,4.7-6.6,3.9-10.4,3.7c0,0.1,0,0.2-0.1,0.3
          c-0.1-0.1-0.2-0.2-0.3-0.3h0c0.5,2.5,2.6,3.2,4.6,2.9c3-0.4,5.8-1.5,8.9-2.3c2.6,1.6,3.5,3.7,1.4,6.6c-1,1.4-1.9,2.8-2.6,4.3
          c-2,4.5,1.1,9.3,6,9c2.2-0.2,4.4-1.6,6.6-2.2c1.1-0.3,2.4,0.1,4.4,0.3c-1.5,3.5-2.7,6.1-3.7,8.9c-1.1,2.8-0.5,5.3,1.6,7.5
          c2.2,2.1,5,2,8.5,0.6c2.7-1.1,3.8-5,7.9-4.1c0,1,0.3,2.1-0.1,2.8c-4.2,7.3-8.3,14.7-12.9,21.8c-3.9,6-9.6,6.4-14.3,1.3
          c-3.5-3.8-6.2-8.1-5.9-13.6C283.7,480.1,283.4,478.2,283.3,476.1z M272.6,481.8c1.9-1,2.7-1.5,3.7-1.8c0.9-0.2,1.9-0.1,3.4-0.2
          c2.1,4.1,2,8.7,3.6,14.2C276.6,491.5,275.5,486.4,272.6,481.8z M276.3,494.9c-3.5,3.6-7.8,2.7-12.4,2.4c-0.6-5.9-0.7-11.5,0.3-18.3
          C270.3,483,271.7,485,276.3,494.9z M259.1,497.7c-2.1-0.1-4.3-0.3-6.2-0.4c-0.5-1.1-1.1-1.7-1-2.3c0.5-4,1-8,1.7-11.9
          c0.3-1.9,1.9-2.6,3.7-2.7c2.1,0,2.8,1.5,3.2,3.2C261.6,488.2,261.3,490.8,259.1,497.7z M250.3,484.5c-0.5,3.6-1.3,7.1-2.1,11.1
          c-2.1-0.4-4-0.3-5.2-1.2c-1.1-0.8-2.4-2.8-2.1-4c0.7-3.6,2-7,3-10.3C250.2,479.5,251,480.1,250.3,484.5z M236.9,409.7
          c-0.5,1.8-1.1,3.9-2.4,8.2c-4.9-6.9-8.3-11.8-12.1-17.2c1.8-1.7,3.3-3.2,5.4-5.2c1.3,3.1,1.9,5.8,3.3,7.9
          C232.6,405.6,234.7,407.4,236.9,409.7z M269.2,385.7v7.3c-2.4,1.8-4.9,1.9-7.5,0.9c-1.9-0.8-2.6-3.3-1.4-5
          C261.8,386.8,262.5,386.5,269.2,385.7z M264.9,363.3c-1.5-0.5-3.1-1.3-4.3-2.3c-0.8-0.8-1.5-2.4-1.2-3.4c0.2-1,1.6-2.2,2.6-2.5
          c2.9-0.9,5.9-0.7,9.2,1.5c-0.1,1.5,0.1,2.5-0.3,3.4C269.5,363.4,267.9,364.3,264.9,363.3z M275.3,345.4c0-0.1,0-0.3,0.1-0.4
          c-2.2-1.1-4.6-2.1-6.6-3.5c-0.9-0.6-1.6-2.6-1.2-3.4c0.6-1.3,2.1-2.9,3.4-3.1c1.7-0.3,3.6,0.7,5.5,1.1c-0.4,3.3-0.7,6.1-1.1,8.8
          c0.1,0,0.2,0.1,0.2,0.1l0,0.2c2.4-1.1,2.1-3.8,3-5.7c1.9-4.1,3.5-8.4,5.2-12.6c-0.1,0-0.1-0.1-0.2-0.1c0-0.2,0-0.3-0.1-0.4l-7.9-2
          c0-2.5,0-5,0-8c2.6,0,4.6-0.3,6.4,0.1c3.1,0.6,4.1,2.8,3.6,5.8c-1.6,0.9-2.4,2.3-2.1,4.1l0.4,0.1c-0.1,0.1-0.1,0.3-0.2,0.4
          c2.4,1.1,4.8,2.1,7.1,3.4c13.4,7.3,26.7,14.6,40.1,21.9c3.5,1.9,7.3,3.5,10.2,7.1c-1.1,4.1-2.2,8.3-3.4,12.9c-1.5,0.3-3,1-4.6,1
          c-18.6,0.2-37.2,0.3-55.9,0.4c-1.6,0-3.3-0.3-5.3-0.5c-1.1-3.6-0.3-6.8,0.3-10.1c1.1-5.9,2.2-11.8,3.2-17.7
          C275.5,345.3,275.4,345.3,275.3,345.4z M334.9,279.6c5.4-2,10.8-4.1,16.3-6.2c-3.3-1.3-3.8-4.2-4.7-7.2c-0.8-2.6-2.5-4.8-5.6-5.2
          c-2.7-0.3-4.9,1.4-6.8,5c-1,1.9-1,3.7-0.5,5.8c0.5,2.5,0.7,5.2,1,7.8c-3.1,0.6-6.3,1.3-10,2c-4.3-6.7-8.3-13.7-12.2-20.8
          c-1.4-2.6-1.2-5.1-0.4-7.8c1.2-4.5,3.9-7.9,7.5-10.6c5.1-3.7,12.1-3.4,16.9,0.7c1.8,1.5,3.5,3,5.6,4.9c1.2-2.7,1.9-4.9,3-7
          c2.5-5.1,6.6-8.5,12-10.2c7.5-2.4,12-0.9,16.7,5.6c0.6,0.8,0.9,1.8,1.5,2.7c0.5,0.8,1.1,1.5,1.6,2.3c2.7-2.8,5-5.6,7.8-7.9
          c4.3-3.6,7.8-3.2,11.4,0.9c1.5,1.7,2.5,3.8,3.9,6.1c2-1.9,3.6-3.6,5.4-5c5.5-4.1,12.1-2.9,15.8,3c1.2,1.9,1.8,4.1,3.1,7
          c2.1-1.9,3.4-3.3,5-4.5c4.5-3.5,9.7-3.5,14.4-1.2c5.1,2.4,9.4,7.7,4.8,15.1c-5.4,8.6-10.7,17.3-16.1,26.1c-1.6-0.6-2.9-1-4.7-1.6
          c0.6-2,1.1-3.8,1.6-5.7c0.5-1.9,1.3-3.9,1.4-5.8c0.2-2.5-1.2-4.6-3.4-5.9c-2.3-1.4-4.8-1-6.7,0.5c-2.3,1.9-4.7,4-6.3,6.5
          c-1.8,2.8-4.4,3.2-7.1,3.7c0,0.1,0,0.2,0,0.3c0,0-0.1,0-0.1,0c2.8,1.9,5.9,3,9.4,2.7c0.8,2,2.8,1.6,4.3,2c0,0,0,0,0,0
          c3,1.8,6,3.6,9,5.4c-3.1,8.4-26.6,47.8-34.1,57c-4.3-1.2-8.8-2.5-13.1-3.7c-2.2-9.5-1.3-43.7,1.6-64.5c5.6-1.6,11.2-0.2,16.9,0.2
          c0,0,0,0,0,0c-0.1-0.1-0.2-0.2-0.3-0.2c0,0,0.1,0,0.1-0.1c-0.9-1.2-1.9-2.4-2.9-3.7c1-3.9,2.3-7.5,6.8-8.7c2.1,7.5,2.1,7.6-3.9,12.4
          c0.1,0.1,0.2,0.2,0.2,0.3c1.8,1.4,3.8,2,6,1c-0.1-0.1-0.2-0.2-0.4-0.2c0.2,0,0.3-0.1,0.5-0.1c0.5-3.9,1.3-7.8,1.5-11.7
          c0.1-3.9-4.1-6-7.2-3.7c-1.6,1.2-3.1,2.7-4.1,4.4c-1.4,2.2-2.5,4.8-3.6,7.1c-2.6-0.1-2.7-1.6-2.7-3.4c0-2.3,0.1-4.8-0.5-7
          c-0.5-1.7-2.2-3.1-3.3-4.5c-6.2,3.4-6.2,3.4-10,13.3c-2.1,1.4-3.9,0.9-5-1.3c-1.3-2.7-2-5.7-3.5-8.3c-1.8-3.1-4.9-3-7.6-0.5
          c-3.9,3.6-4.1,8.3-3.8,12.8c-2.2,1.5-4.1,2.7-6,3.9c9.1-0.7,18-3.4,27.7-2.1c0.3,1,1,2.3,1,3.5c-0.7,19.9-1.5,39.9-2.4,59.8
          c0,0.3-0.3,0.6-0.5,1c-5.4,1.5-10.8,3.1-16.9,4.8c-11.2-18-22-36.2-32.3-54.5C328.6,282,332.5,281.7,334.9,279.6
          C335,279.6,334.9,279.6,334.9,279.6z M340.3,263.9c3.4,1.8,4.2,4.3,4.5,7c0.3,2.3-0.9,3.8-3.1,4.5c-2.1,0.7-3.9-0.4-4.7-2.7
          C335.8,269.2,336.4,266.2,340.3,263.9z M319.7,236.8c0.5-0.6,1-1.4,1.7-1.7c0.4-0.2,1.1,0.4,1.7,0.7c-0.5,0.7-1.1,1.5-1.6,2.2
          C320.7,237.5,320.2,237.1,319.7,236.8z M357.1,203.4c-2.1,1.7-4.2,3.2-6.6,5.1c-3.2-4-6.1-7.6-9-11.2c1.4-3.8,4.4-5,8.1-6.4
          C353.5,194,355.5,198.3,357.1,203.4z M353.5,188.4c2.8-1.1,5.5-2.2,8.1-3.2c4.4,3.3,3.9,7.9,5.7,12.2c-2.2,1.3-4,2.3-6.1,3.6
          C357.5,197.2,355.1,193.4,353.5,188.4z M367.8,184.3c2.4-0.2,4.6-0.5,8.4-0.9c-0.3,4.7-0.3,8-0.9,11.3c-0.4,2.4-2.2,3.3-5.2,2
          C369.4,193,367,189.2,367.8,184.3z M384.3,195.3c-0.4,0.9-2.2,1.8-3.2,1.7c-0.9-0.1-2.4-1.7-2.4-2.6c-0.1-3.3,0.4-6.6,0.8-11.2
          c3.4,0.5,5.6,0.7,8.4,1.1C386.6,188.4,385.7,191.9,384.3,195.3z M389.2,190c0.5-1.8,0.9-3.7,1.6-6c3,0.9,5.4,1.7,7.7,2.4
          c0.1,1,0.3,1.7,0.1,2.3c-0.9,4.1-3.6,7.1-6.4,9.9c-0.7,0.7-2.4,0.8-3.5,0.6c-0.6-0.1-1.3-1.7-1.2-2.5
          C387.9,194.5,388.6,192.3,389.2,190z M408.8,214c6.4-2.8,10.9-5,16.3-6.1c1.2,2.4,2.2,4.4,3.3,6.7c-4.7,2.7-9.2,4.2-13.9,3.6
          C412.9,217.9,411.5,216.1,408.8,214z M419.1,232.4c1.1-1.3,1.7-2.6,2.6-2.8c3.2-0.8,6.5-1.2,10.3-1.8c0.4,1.7,0.7,3.1,1.3,5.8
          C427.8,232.8,423.8,234.3,419.1,232.4z M427.4,238.1c-0.6,0.3-1.1,0.5-1.7,0.8c-0.2-0.4-0.4-0.8-0.6-1.2c0.6-0.1,1.1-0.3,1.7-0.2
          C427,237.4,427.2,237.8,427.4,238.1z M481.3,275.4c10-0.9,15,6,11.3,15.6c-0.5,1.2-1.3,2.3-2.4,4.3c2.2,0.1,3.7,0.2,5.2,0.3
          c7.8,0.2,11.1,3.4,11.3,11c0.1,3.8-0.7,7.4-3.1,10.5c-0.8,1-1.4,2.1-2,3c1.5,2.7,3.8,1.8,5.6,2c9.8,1.2,15,10.3,10.7,19.3
          c-1.1,2.4-2.8,4.5-4.6,7.4c1.5,0.8,2.9,1.6,4.3,2.3c4.6,2.3,7.1,6.3,8.2,11c1,4.3-1.3,7.9-5.3,11.3c-9.7-0.5-20.1,0.7-30.5-0.8
          c-0.4-0.1-0.7-1-1.1-1.7c1.6-3.2,5-2.9,7.7-4c2.5-1,5.2-2.1,5.3-5.4c0.1-2.6-2.2-5.2-5.8-6.2c-2.9-0.8-5.9-1-9.7-1.6
          c-0.2-1.6-0.5-3.4-0.8-5.5c2.4-1.2,4.6-2.1,6.6-3.3c1.4-0.8,2.8-1.9,3.7-3.3c3.2-4.7,0.8-9.9-4.8-10.3c-2.3-0.2-4.7,0.3-7,0.7
          c-2.4,0.4-4.4-0.2-6.4-1.5c0,0,0,0.1,0,0.1c-0.1,0-0.2-0.1-0.3-0.1c-0.2,3.5,1.3,6.4,3.5,9l0,0c0.1,0.1,0.2,0.2,0.2,0.2
          c0.3-1.3,0.6-2.5,0.9-4.1c3-1.6,6.3-1.6,9.5-0.9c0.8,0.2,1.9,1.1,2,1.9c0.2,1.2,0.1,2.8-0.6,3.6c-1.9,2.5-4.7,3.4-8.1,3.5
          c-1.2-1.3-2.5-2.6-3.8-3.9c0,0,0,0,0,0c-0.1-0.1-0.1-0.2-0.2-0.3c1.3,6.6,2.7,13.1,3.9,19.8c0.7,4,0.9,8,1.3,11.9
          c-1.4,0.7-2.3,1.6-3.1,1.6c-21.7,0.1-43.4,0.1-65.2,0.1c-2.2-2-2.6-4.8-3.4-7.2c-0.7-2.2-0.8-4.6-1.3-7.6
          c19.6-10.7,40.1-19.6,60.1-29.6c1.4,0.7,2.8,1.4,4.1,2c0-0.1,0-0.1,0-0.2c0.1,0.1,0.2,0.1,0.3,0.2c0.2-1.5,0.1-3.4,0.9-4.5
          c1.1-1.6,3.2-2.4,4.6-3.8c2.6-2.6,3.1-5.9,1.5-8.2c-1.9-2.8-5.6-4.4-8.8-3.6c-1.3,0.3-2.4,1.1-3.7,1.6c-3.6,1.3-3.6,1.3-7-3.5
          c2.1-2.8,4.5-5.5,6.5-8.6c2.1-3.3,1-6.5-2.6-8.3c-4-2.1-7.8-1.6-11.3,1.1c-2.1,1.6-3.8,3.5-6.7,2.9c0,0.1,0,0.2,0,0.3
          c-0.1,0-0.2-0.1-0.3-0.1c0.8,3.7,4.3,5,6.6,7.4c0,0,0,0,0,0c0,0,0,0-0.1-0.1c0,0,0,0,0,0c-0.3-2.6-1.2-5.5,1.4-7.4
          c1.5-1.1,3.5-2,5.3-2.4c2-0.4,4.3,0.4,4.8,2.6c0.3,1.4-0.1,3.3-0.9,4.6c-2.6,4.2-6.6,3.9-10.7,2.6c0,0,0,0,0,0.1
          c3.8,4.5,8.1,8.6,10.5,14.2c0.4,1,1.7,1.6,2.7,2.3c0,0,0-0.1,0-0.1c0.1,0,0.2,0.1,0.4,0.1c1.9-5.4,4.7-7.1,9.3-5.6
          c2,0.6,3.1,3.5,1.6,4.9c-1.5,1.3-3.2,2.7-5,3c-1.3,0.3-2.9-1.1-4.4-1.7c-0.5-0.2-1-0.4-1.5-0.5c0,0.1,0,0.1-0.1,0.2
          c-0.1-0.1-0.2-0.1-0.3-0.2c0.5,1.5,0.9,3.1,1.4,4.5c-5.8,4.4-51.4,27.1-60.7,30.3c-2.4-2-4.8-4.1-7.2-6.1c0,0,0,0.1,0,0.1
          c-0.1,0-0.2,0-0.4,0c-0.2,2.9,2.3,4.4,3.6,6.5c3.2,5.2,6,10.5,5.3,17.2c-8.7,1.5-17.4,0.3-26.9,0.6c3.3-9.3,9-16.3,13-24
          c2-0.2,3.5-0.3,5-0.4c0-0.1,0-0.3,0-0.4c0.1,0.1,0.2,0.2,0.3,0.3c-0.8-2.4-2.2-4.7-0.3-7.5c3.5-5.3,6.6-11,9.9-16.4
          c6.4-10.7,12.7-21.4,19.1-32c1-1.7,2.3-3.2,3.4-4.7c2.1,0.5,4,0.9,5.8,1.3c-0.1-0.1-0.1-0.1-0.2-0.2c0.1,0,0.2,0.1,0.3,0.1
          c1.6-3.6,3-7.3,6.9-9c0.8-0.4,2.1-0.4,2.8,0.1c0.6,0.4,1.1,1.7,1.1,2.5c-0.2,3.6-2.2,6.1-5.3,7.9c-1.8-0.5-3.6-1-5.4-1.5
          c0,0,0,0.1-0.1,0.1c0,0-0.1,0-0.1,0c2.5,2.8,5,5.7,8.9,6.8c0-0.1-0.1-0.1-0.1-0.2c0.1,0,0.3,0,0.4,0.1c0.2-1.5,0.1-3.1,0.7-4.5
          c1.1-2.8,3-5.3,3.9-8.1c1.4-4.1-2-7.6-6-6.5c-2.4,0.6-4.7,1.6-7.1,2.5c0,0.1,0,0.2,0,0.3c-0.1,0-0.1,0-0.2,0
          c0.8,2.6-1.2,3.8-3.2,5.8c-0.9-3.7,0.4-5.1,3.2-5.8c0-0.1,0-0.2-0.1-0.2c0.1,0,0.1-0.1,0.2-0.1c-0.2-3.2,2.2-5.4,3.5-7.9
          c2-3.9,4.3-7.6,6.6-11.5c5.8-3.1,11.5-3.7,17.2,0.4c6.1,4.4,4.3,10.5,2.5,17.1C476.3,276.5,478.8,275.6,481.3,275.4z M479,270.6
          c-0.4,0.2-0.8,0.4-1.2,0.7c-0.1-0.3-0.4-0.6-0.3-0.9c0.2-0.5,0.5-1,0.8-1.5C478.6,269.5,478.8,270,479,270.6z M478.4,255.9
          c3.2-3.4,6.5-3,10.7-2.2v15.1c-1.3,0.8-2.9,1.7-4.9,2.9C480.4,266.6,480.2,260.9,478.4,255.9z M491.2,253.3h8.1
          c1.2,4.3,0.8,8.3-0.2,12.1c-0.2,1-1.7,2-2.9,2.3c-1.8,0.5-3.5-0.6-3.8-2.4C491.9,261.7,491.7,258.1,491.2,253.3z M519.9,257.3
          c0.8,1.8,2.4,2,4.1,2c-1,4.3-4.2,7.3-7.2,10.8c-1.8-0.5-3.6-1-5.9-1.6c1-3,1.9-5.5,2.7-8.1C514.6,257.1,517.3,257.3,519.9,257.3z
           M531.9,325.7c-2.2-2-1.4-4.2,1.1-6.6c4,1.6,7.8,3.8,12.1,7.4c-1.4,2.7-2.3,4.4-3.1,5.9c-1.1-0.2-1.8-0.1-2.3-0.4
          C537,330,534.3,328,531.9,325.7z M535,341.6c-3.1-2.4-6.2-5-8.1-8.6c-0.5-0.9-0.4-2.8,0.2-3.6c0.6-0.7,2.6-1.1,3.4-0.6
          c2.3,1.3,4.4,3,6.5,4.8C539.8,336.1,539.4,337.9,535,341.6z M532.8,314.3c0.6-2,1.2-3.8,1.7-5.6c4.8-1.4,8.6,1.3,13.1,1.7
          c1.7,4.5-0.6,8-1.6,12.1C541,320.4,537,317.6,532.8,314.3z M548.2,306.5c-4.1,0.1-7.6-0.2-11-1.7c-2.5-1.1-3.9-2.5-2.8-6.4
          c4.3-0.4,8.2-0.8,12.1-1.2c0.7,1.3,1.5,2.1,1.6,3C548.3,302,548.2,304,548.2,306.5z M545.5,293c-2.3,2-10.7,2.5-13.4,0.7
          c-0.7-0.5-1.3-1.7-1.3-2.5c0-0.8,0.7-2,1.4-2.4c3.3-1.5,6.8-2.7,10.9-4.2c1.2,2.3,1.9,3.5,2.3,4.7c0.4,0.9,0.5,1.9,0.6,2.8
          C545.9,292.5,545.8,292.8,545.5,293z M533.1,285c-3.3,1.3-3.9,0.8-6.7-4.4c2.1-3.4,5.1-5.8,10.2-8.2c1.9,3.1,3.4,5.5,4.8,7.7
          C539.2,283.8,535.8,284,533.1,285z M527.8,274.7c-2.5,1.9-3.6,1.5-7.8-2.1c1.4-3.8,3.6-6.9,7.8-9.3c1.8,2,3.4,3.9,5.5,6.2
          C531.1,271.5,529.6,273.3,527.8,274.7z M507.8,266.1c-0.9,1.1-3.3,0.9-6.8,1.8c1.1-6.1,1.9-10.2,2.8-14.9c3,1.1,5.3,1.9,7.7,2.7
          C511.7,260.1,510.1,263.4,507.8,266.1z M528.1,499.6c-1.3,0.7-2.7,1.4-4,2.1c0-0.1,0.1-0.1,0.1-0.2c-1.6-0.1-3.2-0.3-5-0.4
          c-1-3.8-1.9-7.3-2.9-11.4c2.1-0.9,4-1.7,6.3-2.6C525,491.4,529.2,494.3,528.1,499.6z M512.5,412.5c-1,0.2-1.9,0.5-2.7,0.7
          c-1.1,2.3,0.5,3.3,1.7,4.5c3.8,3.9,4.9,8.7,4.8,14c-0.2,6.2-2.6,9.1-9.3,11.4c-0.6,0.2-1.2,0.6-1.8,0.9c-1,3.2,2.1,3.8,3.5,5.4
          c5,6.1,4.8,11.8-0.7,17.1c-2.7,2.6-6,3.1-9.5,2.5c-2.9-0.5-5.8-1.6-9.4-2.7c0.2,2,0.5,3.5,0.6,5c0.1,2.7,0.5,5.4,0.2,8.1
          c-0.7,5.5-3.1,7.7-8.6,8.2c-2,0.2-4.1,0-6.7,0c-0.4,2.2-0.7,4.5-1.3,6.6c-1.8,6.2-4.4,7.7-11.3,7.7c-4.1,0-7.7-1.2-9.7-4.6
          c-5.4-9.2-12.3-17.6-15.5-28c2.1,0.8,3.8,1.9,5.3,3.7c1.4,1.8,3.3,3.2,5.2,4.6c1.9,1.4,3.8,0.7,5.6-0.5c2-1.4,2.4-3.4,1.7-5.3
          c-0.9-2.5-2.2-4.9-3.6-7.2c-1.1-1.9-0.7-3.7-0.1-5.5c2.3-0.4,4.5-0.5,6.4,1.3c1.4,1.4,2.8,3.2,4.5,3.9c1.7,0.7,4.1,0.7,5.8,0
          c2-0.8,2.5-3.1,1.9-5.2c-0.6-1.9-1.6-3.6-2.4-5.4c-0.1,2.9-0.2,5.7-0.3,8.7c-6.6-1.4-8.7-3.5-9.1-8.7c0-0.3,0.3-0.6,0.4-0.9
          c-3.9,0.3-6.4,2.4-7.4,6.1c-3.5,1-6.2,3.1-8.2,6.1c0,0,0.1,0,0.1,0c0,0.1,0,0.2,0,0.4c1.9,0,4.4-0.5,5.4,0.4
          c1.8,1.7,2.8,4.4,3.8,6.9c0.2,0.5-0.6,2-1.3,2.4c-0.7,0.4-2.1,0.5-2.8,0.1c-3.7-2.2-5.7-5.4-5.1-9.8c-0.1,0-0.2,0-0.3,0
          c0.1-0.1,0.1-0.2,0.2-0.3c-2.5,0.5-4.7,1.5-6,3.9c-1.5-1.7-3.3-3.1-4.5-5c-9-15-17.8-30.2-26.6-45.3c-1.5-2.6-2.8-5.3-4.2-7.8
          c1.8-3.6,3.5-6.9,5.1-10.1c-2.1,2.1-3.7,4.8-7,5.4c-5.5-5.4-12.7-17.9-14.9-25.6c9.2-1.6,21.4-1.5,29,0.3c-0.5,3.6-1,7.2-1.5,10.8
          c1.6-3.9,3.3-7.9,4.9-11.7c11.5-1,60-0.9,67.7,0.1c1.6,6.3,1.6,10.8,0,16.5c-2,7.4-4,14.8-5.9,22.3c0.9-1.3,1.9-2.5,2.8-3.8
          c0.9-1.4,1.6-2.8,2.5-4.4c4.7,1.2,7.6,3.6,7.8,8.2c0.1,1.4-0.8,3.4-1.9,4.2c-2.9,2.1-6.4,2.1-9.4,0c-1-0.7-1-3-1.4-4.5
          c-2.5,3.9-4.9,7.8-7.6,12.1c-3.1-1.7-5.7-3.2-8.2-4.7c-14.5-8.7-29.1-17.3-43.6-26c-2-1.2-4.1-2.5-5.7-4.1c-1-1.1-1.1-3-1.7-4.5
          c-2,3.1-3.9,6.2-5.9,9.4c2.4-1.5,4.8-2.4,7.5-0.7c17.3,10.4,34.6,20.7,52,31.1c1.1,0.7,2.1,1.6,3.5,2.7c-1.2,2.1-1.9,4.1-3.2,5.4
          c-3.7,3.9-6.6,8.2-8,13.5c1.2-0.2,2.4-0.7,3.5-0.6c1.9,0.3,3.7,1,5.5,1.5c-1.4-1.8-2.8-3.7-4.6-6.1c2.1-1.2,3.6-2.6,5.3-2.8
          c2.6-0.3,5.4,0.5,8.1,0.4c4.8-0.3,7.3-4.4,5.2-8.7c-1.3-2.7-3.3-5-5.5-8.1c1.7-0.6,3-1.5,4.4-1.6c3-0.3,6.1,0.1,9.1-0.4
          c4.6-0.8,6.4-4.6,5.3-9.2c-1.1-4.4-4.1-6.8-7.6-9.2c-0.9-0.6-1.5-2.4-1.3-3.4c0.3-1,1.7-1.9,2.8-2.2c2.2-0.7,4.7-0.6,6.9-1.4
          c2.9-1.1,5.7-2.9,6-6.3c0.4-3.5-2.1-5.6-4.9-7.1c-2.3-1.3-4.9-2-7.6-3v-4.6c9.5-0.9,18.9-0.5,27.6-0.6c6.5,4.5,8.4,10.5,9,17.1
          C526.2,405.1,521.6,410.8,512.5,412.5z M515.6,503.2c-1.1,0.4-2.3,0.9-3.5,1.2c-0.6,0.1-1.4,0-1.8-0.3c-2-1.6-2.7-9.7-1.2-12.1
          c0.7-1.1,3.7-0.8,4.4,0.5C515.1,495.8,516.6,499.1,515.6,503.2z M505.9,504c-2.9,2.6-5.7,2.6-9.2,1.2c0.8-3.9,0.4-7.9,2.4-11.5
          c0.5-0.9,2.1-1.9,3.1-1.8c1,0.1,2.6,1.3,2.8,2.3C505.6,497.5,505.6,500.9,505.9,504z M480.4,501c-3.3,1.4-5.5-0.2-5.1-3.5
          c0.1-1,0.3-2,0.7-3c0.5-1.2,1.2-2.4,1.9-3.9c2.6-0.3,5.2-0.6,7.8-0.9c0.2,1.1,0.5,1.8,0.3,2.3c-0.7,2.4-1.6,4.9-2.4,7.3
          c0.1-0.1,0.2-0.1,0.3-0.2c0,0.1,0,0.1,0,0.2c3.3-1.3,3.6-5.1,6-7.1c1.1-0.9,2.8-1,4.6-1.7c2.1,5.4-0.4,9.6-1.1,13.9
          c-8,1.2-9,0.7-9.5-5.2c-0.1,0.1-0.2,0.1-0.4,0.2c0-0.1,0-0.1,0.1-0.2C482.6,499.9,481.5,500.5,480.4,501z M428.6,510.2
          c-6.7,11.2-16.1,13.6-25.7,3.6c-2.4,4.6-5.7,8.2-10.6,10.1c-6.7,2.7-11.3,1.5-16-4.4c-0.8-1-1.6-2.2-2.4-3.2
          c-0.2-0.2-0.6-0.1-1.4-0.2c-1.2,2.1-2.2,4.5-3.7,6.6c-7.1,9.5-17.5,8.2-23.3-1.1c-1.6-2.5-2.4-5.5-3.8-9c-1.7,1-3.3,1.9-4.9,2.9
          c-2.8,1.8-5.8,2.4-8.7,0.7c-5.6-3.2-11-6.6-12-14c-0.5-3.2-1.9-6.3-3.1-10.2c2.7-4.6,5.7-9.8,8.8-15c0.5-0.8,1.3-1.5,2.4-2.7
          c2.3,0.9,4.7,1.9,6.7,2.7c0.4,1.3,0.8,1.9,0.7,2.5c-0.2,2-0.8,4-0.8,6c0,2.8,0.6,5.7,3.3,6.9c3.3,1.5,6.7,1.3,9.5-1.3
          c2-1.8,3.5-4.1,5.3-6.1c1.1-1.2,3.9-0.4,4.1,1.1c0.3,2,0.3,4,0.5,6.1c0.6,6.4,2.9,8.4,9.2,7.4c1.4-0.2,2.5-1.4,3.8-2.3
          c0-0.1,0-0.2,0-0.2c-2.8,0.2-5.6,0.3-8.3,0.5c-1.7-5.8-1.7-5.8-0.2-11.5c2.8,0.4,5.6,0.8,8.3,1.2c1.8,3.6,0.2,6.7,0.1,9.8
          c0.1,0,0.1,0,0.2,0c1.9-3,3.8-6,5.8-9.3c1.8-0.5,2.6,0.8,3.2,2.5c0.5,1.6,1.1,3.2,1.7,4.8c1.6,3.9,4.3,5.9,7.4,5.8
          c4-0.1,7.6-3.1,8.6-7.3c0.5-2,0.3-4.1,0.8-6c0.2-0.8,1.3-1.9,2-1.9c1.2-0.1,3,0.1,3.6,0.9c1.4,1.9,2.1,4.2,3.3,6.2
          c2.6,4.6,4.1,4.7,8.8,0.9c0-0.1,0-0.2,0-0.3c-1.9-0.1-4.2,0.2-5.3-0.8c-1.5-1.4-2.1-4-2.6-6.1c-0.4-1.9,1.5-3.1,4.2-3.2
          c1.9-0.1,3.4,0.6,3.6,2.6c0.2,2.5,0.1,5,0.1,7.6c0.1,0,0.2,0,0.3,0c0.9-1.2,2.1-2.3,2.3-3.6c0.5-2.5,0.4-5.2,0.6-8.8
          c1.6,1.1,2.6,1.7,3.4,2.5c1.4,1.4,2.5,3.2,4,4.5c2.6,2.3,6.2,1.3,7.4-2c0.6-1.6,0.8-3.3,1-4.9c0.2-1.2,0-2.5,0-4.1
          c5.3,4.7,11.2,14.2,15.9,25.6c-1.8,4.9-4.6,8-10.5,7.3C434,509.6,431.3,510.1,428.6,510.2z M434.1,514.2v7.3c-1.9,0.3-3.4,0.6-5,0.7
          c-1.5,0.1-3.1-0.2-6.5-0.4C427.3,518.6,427.8,513.1,434.1,514.2z M405.9,554.6c-0.1-0.1-0.2-0.2-0.4-0.3c0.1,1.6,0.3,3.3,0.5,4.8
          c-2.5,2.6-5.3,4.3-9.7,3.7c-1.1-3.1-2.3-6.5-3.6-10.2c2.4-1.5,4.2-2.7,6.2-4c2.4,2.1,4.5,3.9,6.6,5.7c0,0,0,0,0,0
          c0.1,0,0.2,0.1,0.3,0.1c-1-3-2-6-3.1-9.3c1.4-1,2.5-2.4,4-2.8c1-0.3,2.6,0.5,3.5,1.3c2.4,2.2,4.5,4.7,7.1,7.5
          c-2.3,2.2-4.2,3.9-6.1,5.7c-2-1-3.7-1.8-5.3-2.5C405.8,554.4,405.8,554.5,405.9,554.6z M393.4,563.4c-1.8,3.1-4,3.8-7.6,2.5
          c-0.3-3.1-0.7-6.4-1-9.9c2.8-2.1,4.9-2,6,0.1C392,558.4,392.6,561.1,393.4,563.4z M383.3,565c-2.9,3.3-5.7,2.6-9.1,1.1
          c1.6-4-0.7-9.9,7-11.6C381.9,558.4,382.6,561.9,383.3,565z M366.3,554.8c1.4-2.5,2.3-2.4,7.2,0.2c-0.8,3.6-1.7,7.4-2.5,11
          c-3.9,1.1-6.5-0.2-9.2-2.3C363.2,560.7,364.6,557.7,366.3,554.8z M358.7,563.6c-3.4-1.6-5.7-2.7-7.9-3.8c0.2-1.2,0.1-2.1,0.4-2.4
          c2.7-2.6,5.4-5.1,8.3-7.4c0.6-0.5,2.3-0.4,2.7,0.1c0.8,0.9,1.6,2.5,1.3,3.3C362.3,556.5,360.7,559.4,358.7,563.6z M332.7,546.4
          c-0.7-2-1.4-3.9-2.1-6c2.8-2.1,5.4-4,8-6c1.6-0.1,3.2-0.3,4.8-0.2c3.5,0.1,3.5,0.1,5.7,5.9C344,542.9,339.7,547.9,332.7,546.4z
           M324.6,532.2c0.7-1.1,1.1-3,2-3.3c5.1-1.6,10.1-3.7,15.8-2.8c0.5,1.3,1,2.5,1.6,3.9c-1.8,1.4-3.5,2.7-5.2,4
          c-1.6,0.2-3.4,0.2-4.7,0.9C329.8,537.3,326.8,536.2,324.6,532.2C324.5,532.2,324.5,532.2,324.6,532.2z M322.8,518
          c5.7,2.2,10.5,3,15.5,0.8c1.7-0.8,2.2,0.8,2.7,2.4c-4.5,3.5-10.1,3.3-15.2,4.1C323.9,525.6,322.9,523.4,322.8,518z M309.9,461.5
          c-0.1,0-0.2,0-0.2,0c0.3,0.8,0.6,1.6,0.8,2.5c1.3,5-1.6,8.3-6.7,7.3c-0.9-0.2-2.3-2-2.1-2.7c0.5-2.2,1.2-4.6,2.7-6.1
          c1.1-1,3.4-0.8,5.3-1c0-0.1-0.1-0.2-0.1-0.4c0,0,0.1,0,0.1,0.1c-4.6-4.6-9.2-9.2-13.8-13.8c-0.1,0-0.2,0-0.3-0.1
          c0.2,1.5,0.7,3.1,0.6,4.6c-0.2,2.5-3.3,4.4-5.8,3.8c-1.9-0.5-3.1-2.8-2.4-4.6c1.4-3.5,3.9-4.8,7.6-3.8c0-0.1,0-0.2,0-0.2
          c0.1,0.1,0.2,0.2,0.3,0.3c0,0,0,0,0,0c-3.1-5.1-6.3-10.2-9.8-15.9c4-2.6,7.5-4.9,11.1-7.2c4.3-2.6,8.7-5.1,12.9-7.7
          c0.9-0.5,1.5-1.6,2.1-2.4c4.4-0.3,7.6-2.8,10.2-6.1c3.3,0.3,5.6-1.7,8.2-3.1c3.8-2.1,7.6-4.1,11.6-6.2c4.8,3.6,7.9,8,11.6,12.4
          c-10.8,18-21.6,35.9-32.4,53.8c-0.5,0.8-1.5,1.2-2.7,2.2c-3-2-6-4-9-6C309.7,461.3,309.8,461.4,309.9,461.5z M423.6,476.5l-0.2,0.2
          c2.4,0,4.7,0.4,4.9,3.5c0.1,1.9,0.6,4.2-1.8,5.2c-2.4,1-3.6-0.8-4.7-2.5c-0.5-0.8-0.9-1.8-1.6-3.1c1-1,2.1-2.1,3.1-3.1
          c0,0-0.1,0-0.1,0c0-0.1,0.1-0.1,0.1-0.1c-4.5,1.1-9.1,1.9-13.5,3.6c-8,3-16.5,3.6-24.8,4.7c-0.9,0.1-1.9-0.3-2.7-0.5
          c-2-11-2.3-53.2-0.4-66.5c3.8-1.3,7.9-2.6,12.4-4.1c1.3,1.4,2.8,2.7,3.8,4.3c10,16.9,19.8,33.9,29.7,50.8c0.3,0.5,0.3,1.3,0.5,2.3
          c-1.6,1.7-3.3,3.5-5,5.3C423.5,476.5,423.6,476.5,423.6,476.5z M391,489.7c-0.7,6.2-1.9,7.9-5.4,8.3c-3,0.4-6.2-2.1-6.4-7.6
          c0-0.7,0.1-1.4,0.1-2.8h10.4C390.4,488.6,391.1,489.2,391,489.7z M362.9,412.1c1.9-7,9.1-19.1,16-27c5,9,9.5,17.2,14.3,25.7
          C382.8,416.6,373,415.7,362.9,412.1z M342.7,488.2c-1.3,0.9-2.9,1.5-4.4,1.9c-1.8,0.4-3.3-0.5-3.8-2.3c-1.1-3.9-0.2-5.6,4.2-8.4
          c1.5,2.3,3.8,2,6.1,2C344.8,483.9,345.2,486.5,342.7,488.2z M344.9,481c-1.5-2.3-3.9-1.8-6.1-1.9c-1.4-2.6-4.5-2.4-6.6-3.8
          c-1.9-1.3-3.8-2.4-5.7-3.6c4.1-10.1,25.7-46.2,34.2-57.2c5.3,1.3,10.8,2.6,17,4v65.6c-2.1,0.4-4,1.2-5.8,1
          c-6.4-0.8-12.7-1.9-19.1-2.9C350.2,481.8,347.5,481.4,344.9,481z M362.9,343.5c10.3-5,20.3-5.3,31.3,0.3c-5.3,9-10.3,17.3-15.2,25.7
          C373.1,365.1,366.5,354.3,362.9,343.5z M357,406.4c-6.6-1.6-9.1-7-12-11.1c-2.9-4.2-5.9-9.3-3.8-15.8c9.6-0.4,19.4-0.2,30.8,0
          C367.7,390.2,361.4,397.7,357,406.4z M341.2,395c-4.8,3-9.3,5.8-13.8,8.8c-1.8,1.2-4.4,1.5-5.1,4.1c-4.3,0.5-7.8,2.2-10.1,6
          c-2.1,0.8-4.3,1.3-6.3,2.4c-7.1,3.9-14.1,7.9-21,11.8c-9.2-12.2-14.7-32.5-12.9-48c10.6-1.4,21.3-0.4,32.1-0.6
          c10.8-0.2,21.6-0.1,32.8-0.1C338.4,384.8,339.7,389.6,341.2,395z M475.2,433.7c2.5,1.5,4.5,3.5,3.3,6.5c-1.3,3.3-4.3,2.5-7,2.1
          c-0.6-0.1-1.2-0.5-1.8-0.8c1-4.5,1-4.5,4.5-8.2C474.6,433.5,474.9,433.6,475.2,433.7z M488.2,389.5c4.3-0.8,7.9-0.7,9.5,3.6
          c1,2.8-1.8,5-7.4,6.2c-0.6,0.1-1.3-0.3-1.9-0.4C486,395.7,487.4,392.6,488.2,389.5z M487.7,360c0.1-0.8,1-1.9,1.7-2.1
          c3.4-1.2,5.5-0.2,9,3.9c-4.2,3-4.2,3-10.3,2.8C488,363.1,487.6,361.5,487.7,360z M416.2,275.4c-0.6-2.1-1-4.2,0.8-6.2
          c2.2-2.5,4.4-5,7.8-5.2c2.6,1.7,3.2,3.6,2.4,6.2c-1.1,3.6-2.6,6.8-6.9,7.2C419.6,275.5,417.8,275.6,416.2,275.4z M381.4,265.8
          c0.3-2.3,0.7-4.6,1.6-6.6c0.4-0.9,2.1-1.3,3.3-2c2.5,3.5,2,6.8,0.2,9.7c-0.5,0.8-2.3,1.1-3.5,1C382.4,267.9,381.3,266.5,381.4,265.8
          z M364.3,269.3c-1.2,0.2-2.6-0.1-4.3-0.2c-1.1-4.2-0.1-6.8,2.1-9.2c1.5-1.6,3.9-1.3,5,0.6c0.5,0.9,1,1.8,1.3,2.7
          C369.6,266.8,368.3,268.8,364.3,269.3z M358.6,350.5c4,7,7.9,14,12,21.1c-5.9,1.9-15.9,2.2-29.2,1.1c-1.9-3.9,0.5-7.3,2-10.4
          c2.8-5.8,6.4-11.1,13.1-15C357.2,348.3,358,349.3,358.6,350.5z M271.7,407.8c1.9,0.5,2.1,2.3,2.5,3.9c0.2,0.6,0.3,1.3,0.7,2.8
          c-0.7,0.8-1.6,2.2-2.9,2.8c-1.8,1-4.1,1-5.4-0.8c-0.8-1.1-0.7-3-0.8-4.5c0-0.5,0.5-1.2,1-1.7C268,408.9,269.3,407.2,271.7,407.8z
           M303.6,507.2c1.8-3,3.6-5.8,8-6.4c2.6,6.2,6.8,11.7,7.9,18.9c0.7,4.3,0.8,9.3,4.9,12.4c0.7,5.9,3.2,10.8,8.1,14.3
          c0.9,3.5,3.2,5.7,6.6,6.9c-0.1-1.7-0.6-3.5,1.2-4.6c3.8-2.2,7.6-4.2,11.6-6.4c1.8,1.5,3.3,2.8,4.6,4c-0.2,1-0.2,1.8-0.5,2.2
          c-2.2,2.1-4.4,4.2-6.7,6.2c-2.4,2.1-4.9,1.8-7.5,0.4c1.6,1.7,2.9,3.8,4.7,5c14.3,9.3,29.8,12.4,46.4,8.2
          c11.5-2.9,20.6-9.8,28.6-18.3c2.5-2.7,4.2-6,6.3-9.1c-0.1,0.1-0.2,0.1-0.2,0.2c0,0,0,0,0,0c0,0,0,0,0,0c-2.7,2.3-5.4,4.6-8.2,7.1
          c-4.2-1.9-6.2-5.9-9.4-8.6c3.2-6.5,3.8-6.7,9-4.3c1.2,0.5,2.3,1,3.5,1.5c0-0.1-0.1-0.2-0.1-0.3c0.1,0,0.2,0,0.3,0
          c-0.3-3-3.5-3.5-4.9-5.5c-1.2-1.7-0.4-4.8,1.5-5c4.2-0.4,8.6-1.7,13,0.6c0,4-1.6,7.2-4.1,10.1c-1.8-0.1-3.6-0.2-5.4-0.3
          c0,0.1,0,0.2,0,0.3c-0.1,0-0.1,0-0.2-0.1c1.1,2.1,2.3,4.1,5.1,4.4c0,0,0,0,0.1,0c6.2-7.7,7.9-17,9.6-25.7c4.4-2.9,8.3-5.4,12.8-8.4
          c1.2,1.6,2.7,3.3,3.8,5.2c22.8,38.5,45.5,77,68.2,115.5c1.7,2.9,3.2,6,4.8,9.2c-3.9,4.2-9,6.3-13.6,8.9
          c-25.4,14.3-52.7,23-81.3,27.7c-3.3,0.5-6.7,1.1-10.1,1.1c-23.1,0.1-46.1,0.6-69.1-0.1c-11.1-0.3-22.2-2.5-33.1-4.7
          c-17.6-3.6-34.4-10.2-51.5-15.7c-1.3-0.4-2.7-0.8-3.7-1.5c-6.4-4.6-14-6.6-21.1-9.6c-5.3-2.3-10.4-5-13.9-10.7
          c2.2-6.7,7.1-12.4,10.8-18.8c11.7-20.2,23.8-40.2,35.7-60.2c3.5-5.8,6.8-11.7,10.3-17.5C292,526.2,297.9,516.8,303.6,507.2z
           M471.7,530.4c-2.9-5-6-9.8-9-14.8c-1.9-3.1-4-6.2-4.9-10c5-0.9,9.5-1.8,14.1-2.4c1.9-0.2,4,0.3,5.9,0.9c2.3,0.6,4.4,1.8,6.7,2.5
          c13.3,3.9,26.1,2.2,38.5-3.6c0.4-0.2,0.7-0.8,1-1.3c1.7-0.2,3.3-0.4,4.2-2c2.9-0.6,5.4-1.8,6.4-4.9c-1.2-0.2-3,0-3.6-0.8
          c-1.8-2.3-3.4-4.9-4.6-7.6c-1-2.2,0.5-3.7,2.8-4.9c3.5,0.7,6,3.5,8.4,6.1c1.2,1.3,0.8,3.1-0.5,4.4c2.9-0.7,5.4-1.9,6.2-5.1
          c-4.5-1.6-7.7-4.9-11.5-9.1c1.9-0.6,3.2-1.5,4-1.2c3.9,1.5,8.8,1.8,9.8,7.1c0.9-1,1.8-1.9,2.7-2.9c-2.2-5.2-9.2-4-11.4-8.8
          c0.7-2,1.9-3,3.9-2.2c3.6,1.5,7.2,3.2,11.3,5.1c0.2-1.3,0.4-2.5,0.6-3.7c1.7-0.8,1.8-2.5,2-4.1c2.6-1.1,2.7-3.3,2.4-5.8
          c-4.8-0.9-9.7-1.7-14.1-2.5c-1.3-2.7-0.4-4.1,1.4-4.5c4.3-1,8.7-1,13.7,1c-0.4-5.8,1.6-11,0.4-17.4c-5.8,3-11.3,3.2-16.7,2.5
          c-1.8-2.8-2-5,0.7-6.4c3-1.5,6.2-2.6,9.5-3.5c1-0.3,2.4,0.6,4.2,1.1c1.3-4.5-2-7.7-3.8-11.3c0,0-0.1,0-0.1-0.1
          c0.2,1.6,0.5,3.2,0.7,5.1c-4.1,3.7-9.2,4.7-14.7,6c-1.1-1.9-2.1-3.5-2.9-5c0.4-1,0.6-1.8,1-2.1c3.6-2.4,7.3-4.6,11.2-7.1
          c1.6,1.1,3.1,2.1,4.6,3.1c0-0.1,0-0.1,0-0.2c0,0.1,0.1,0.1,0.1,0.2c0.1,0,0.1,0.1,0.2,0.1c-0.5-4.6-2.3-8.3-6.3-10.8
          c-0.1,1.3,0.3,3-0.3,3.9c-3,4.4-7.6,6.4-12.6,7.9c-0.6,0.2-1.8-0.8-2.5-1.4c-0.4-0.4-0.6-1.5-0.3-1.8c3.3-4.2,6.8-8.2,12.1-9.9
          c0.8-0.3,2,0.3,3,0.5c-1.6-3.1-3-6.5-7.3-6.8c0,0.1,0,0.2,0,0.3c-0.1,0-0.2,0-0.3-0.1c0.2,0.6,0.4,1.2,0.3,1.7
          c-1.6,6-6.2,8.5-11.8,10.8c1.5-6.5,5.3-11.2,9.9-12.7c0.5-0.2,1.1,0.1,1.7,0.2c0-0.1-0.1-0.2-0.1-0.3c0.1,0,0.2,0,0.3,0
          c0-2.2-1.3-3.7-3.1-4.4c-7.6-3.2-8.5-10.5-11.4-17.4c2.4-0.4,4-0.8,5.6-0.8c48.5,0.2,97,0.4,146,0.6c0.4,2.4,1.2,4.3,1,6.2
          c-1.1,15.9-2.8,31.8-6.2,47.4c-1.6,7.6-3.8,15.1-5.4,22.7c-2.7,12.3-6,24.3-11.6,35.6c-3.7,7.6-6.3,15.7-9.9,23.4
          c-9.1,19.5-21.6,36.9-35.9,52.8c-12.7,14.1-24.9,28.7-40.2,40.3c-10.3,7.8-20.8,15.2-31.2,22.8c-1.1,0.8-2.4,1.1-4.2,2
          c-1.5-1.9-3.1-3.6-4.2-5.5C509,595,490.4,562.7,471.7,530.4z M552.6,471c-9.5-2.9-9.5-2.9-11.8-7.9c5.4-0.6,10.6-2.3,13.8,4
          c0,0,0,0,0,0C554,468.4,553.3,469.7,552.6,471z M542.3,445.6c4.3-2,8.7-2.5,13.9-2.3c0.3,2.1,0.5,4,0.7,5.6
          c-0.6,0.5-0.8,0.8-1.1,0.9c-2.9,1.6-11.2,1.1-13.1-1C542.2,448.3,542.4,447,542.3,445.6z M528.3,399.6c0-0.8,0.8-2,1.4-2.1
          c0.7-0.2,1.6,0.7,3.1,1.4c-1.4,1.2-2.2,2-3.1,2.8C529.2,401,528.3,400.3,528.3,399.6z M526.6,124.1c-24.8,39.6-47.1,80.7-72.6,120.5
          c-2.9-2.6-5.1-5.1-7.9-6.9c-2.5-1.6-5.6-2.3-8.8-3.5c-1.3-4.2-2.8-8.6-4.2-13l-0.1,0c-1.5,3.5-4.5,4.6-8,4.9c-2.3,0.2-4.7,0.6-7,0.3
          c-1-0.1-2.4-1.5-2.6-2.5c-0.1-0.9,1-2.6,1.9-2.9c3.5-1.1,7.1-1.8,11.2-2.7c1.4,0.9,2.9,1.9,4.5,2.9c0,0,0,0,0-0.1c0,0,0,0.1,0,0.1
          c0.1,0,0.1,0.1,0.2,0.1c-0.9-6.5-4.3-11.9-7.9-17.3c-0.4-0.6-1.6-0.8-2.4-1.2c0,0.1,0,0.1,0.1,0.2c-0.1-0.1-0.1-0.1-0.2-0.2
          c-1.2,2.7-3.5,4-6.1,4.8c-3.2,1.1-6.5,2-10.1,3c-1.2-1.3-2.4-2.8-3.6-4.1c5.3-5.7,5.3-5.7,13.1-8.8c2.1,1.6,4.4,3.3,6.7,5.1
          c0,0,0,0,0-0.1c0,0,0.1,0,0.1,0c-1.8-5.5-5.6-9.1-10.9-11.2c0,0,0,0,0,0c0.1,0.1,0.2,0.2,0.3,0.3c-0.1,0-0.2-0.1-0.4-0.1
          c-0.1,1.3,0,3.1-0.6,3.5c-4.4,2.9-9,5.6-13.6,8.1c-0.5,0.3-1.6-0.8-3-1.5c1.4-5.4,5.7-8.9,7.8-13.3c3.4,1.2,6.5,2.2,9.5,3.2
          c0-0.1,0-0.1,0-0.2c-1.6-1.4-3.1-3.1-5-4.1c-24.7-13.2-52.2-8.2-70.6,9.2c-0.5,0.4-0.7,1.1-1.1,1.7c1.5,0.6,3.5,0.7,4.4,1.7
          c2.9,3.2,5.5,6.7,8.4,10.4c-1.2,1.6-2.1,2.9-3.1,4.1c-0.6,0.7-1.5,1.1-2.7,2c-4-2.5-7.7-5.1-10.9-9.2c0.7-2.4,1.4-4.9,2.1-7.4
          c-4.6,4.2-8.4,8.9-10.1,15.1c0,0,0,0,0,0c0.1-0.1,0.2-0.2,0.3-0.3c0,0,0,0,0,0c1.7-1.3,3.4-2.7,5.4-4.3c3.2,2.5,6.4,4.9,9.5,7.5
          c3,2.5,2.8,3.4-0.8,8.5c-5.9-2.4-11.3-5.4-14-11.7c-0.1,0.1-0.2,0.2-0.3,0.2c-2.9,2.7-3.3,6.3-3.9,9.9c0.1-0.1,0.2-0.1,0.3-0.2
          c0-0.1,0-0.1,0.1-0.2c0,0,0,0.1,0,0.1c1-0.6,2.1-1.2,3.6-2c4,1.4,7.8,4.1,11.6,6.6c2.3,1.5,2.5,3.8,0.3,6.7c-4.9-1.1-9.7-3-14.4-5.5
          c-0.4-2-0.8-3.9-1.2-5.7c0,0-0.1,0-0.1,0c-1.1,3.1-2.8,6.2-2.9,9.3c-0.1,5.2-2.1,9-5.4,12.6c-1.3,1.4-2.2,3.2-3.8,5.5
          c-1.7-2.3-2.9-3.8-3.9-5.5c-24.1-41.2-48.1-82.3-72-123.3c2.4-4.4,6.3-5.7,9.9-7.5c18.9-9.6,38.9-15.7,59.9-18.5
          c2.7-0.4,5.7-0.5,7.9-1.9c6.5-4.1,13.7-5.5,21.1-6.4c2.7-0.3,5.3-1,7.9-2c15.2-5.6,31.2-6.4,47.1-6.5c17.6-0.1,35.2,0.9,52.6,3.6
          c7.3,1.1,14.7,2.7,21.3,6.4c1.1,0.6,2.5,1.3,3.7,1.3c5.9,0.1,11.2,2.4,16.6,4.5c14.9,5.6,29.6,11.6,43.3,19.8
          c1.2,0.7,2.3,1.4,3.4,2.3c0.5,0.4,0.8,1.1,1.4,2C527.6,121.7,527.3,123,526.6,124.1z M279.8,253.6c0.1,3.8-1.6,7.5-3.4,11
          c-1.5,2.9-3.9,3.4-7.2,1.6c-0.5-4.8-0.5-9.7,1.3-14.5C273.9,250.9,276.8,251,279.8,253.6z M265.2,266.7c-2.2,0.8-4.3,1.6-6.9,2.5
          c-3.2-8.1-3.2-8.1-2.5-17.1c1.4-0.3,2.9-0.9,4.5-1c1.6-0.2,3.3,0,5.5,0C267,256.5,265.8,261.3,265.2,266.7z M253.4,269.9
          c-1.9,0.9-3.6,1.7-5.7,2.7c-1.2-2.1-2.3-3.7-3.1-5.5c-1.4-3-2.5-6-4.2-10c3.9-1.5,6.6-2.6,9.7-3.8
          C254.1,258.4,252.9,264.1,253.4,269.9z M212.6,336.6v-5.4c2.7-3.3,7.2-4.1,11.1-5.8c1.1-0.5,2.9-0.7,3.8-0.2c1.3,0.8,2,2.4,3.3,4.2
          c-3.9,3.3-7.3,6.5-11.1,9.4c-1.4,1-3.4,1.3-5.1,1.8C214.7,338.8,214.3,337.4,212.6,336.6z M210.4,305.4c3.3,0.3,6.7,0.3,9.9,1.2
          c1.6,0.4,2.7,2.3,5.5,4.8c-5,1.2-7.9,2.1-10.8,2.6c-1.9,0.3-3.9,0.1-6.6,0.1c-0.1-2.8-0.2-5.3-0.3-7.4
          C209.3,305.9,209.9,305.3,210.4,305.4z M211.2,291.4c5-0.4,8.4,3.3,13.4,5.1c-0.4,2.8-0.7,4.7-1,7.3c-5.1-0.9-9.6-1.6-14-2.4
          C207.7,297.6,209.5,294.8,211.2,291.4z M216.9,289.6c-2.6-1.1-4.3-2.9-4.3-5.9c2-0.7,2.2-2.4,2-4.2c6.3-1.4,10.2,2.4,14.7,6.6
          c-1.3,2.2-2.5,4.1-3.4,5.6C222.1,292.7,219.6,290.8,216.9,289.6z M308.2,295.7c-2-0.7-4-1.3-6.1-2c-0.5-2.5-1.1-5-1.3-7.5
          c-0.1-0.8,0.6-2,1.3-2.4c0.7-0.4,2.2-0.5,2.7,0c2.3,1.8,4.4,3.9,6.6,6C310.2,292.1,309.2,293.9,308.2,295.7z M220.2,445
          c0.4,2.8,0.6,4.4,0.8,6.2c-3.5,2.4-7,4-11.3,3.5c-2.6-2.6-2.4-5.8-2.6-8.9C211.6,443.7,215.5,445.2,220.2,445z M206.3,441.6
          c0.3-3.8,0.5-6.3,0.6-8.5c1.3-0.3,2.1-0.8,2.5-0.6c3,1.3,6.1,2.6,9,4.2c0.9,0.5,1.9,2.2,1.7,3.2c-0.1,0.9-1.7,2.2-2.7,2.2
          C214.3,442.1,211,441.8,206.3,441.6z M212.6,430.3c-3.7-1.6-4.7-4.4-4.1-8c1.9-1.6,1.9-3.8,2-6c1.7,0.5,3.7,0.8,5,1.8
          c2.4,1.8,4.4,4.1,6.6,6.3c4.2,4.3,4.2,4.3-0.6,10.2C218.6,433.1,215.7,431.6,212.6,430.3z"/>
        <path d="M150.6,741.6v-7.4c0-21.4-5.1-42.1-14.6-60.7c6.6-6.6,10.5-15.6,10.5-25.3c0-19.7-16.1-35.8-35.8-35.8
          c-8.6,0-16.8,3.1-23.2,8.6c-19.3-11.9-41.4-18.7-64.5-19.6l-7.7-0.3v7.7v132.8h128H150.6z M113.6,640.9c-0.2-2.3,1.9-4,4.7-3.9
          c2.4,0.1,3.9,1.6,3.7,3.8c-0.2,2.5-2.3,4.4-4.7,4.2c-0.7-0.1-1.3-0.3-1.9-0.8c-0.4-0.4-0.8-0.8-1.2-1.2
          C114,642.4,113.7,641.7,113.6,640.9z M110.6,618.9c16.1,0,29.3,13.1,29.3,29.3c0,7.2-2.6,14-7.2,19.3c-2.5-4.3-5.2-8.4-8.2-12.4
          c5.3-1.8,8.7-6.7,8.6-13c-0.1-7.7-7.3-15.9-14.9-17c-6.2-0.9-11.9,2.7-14.3,8c-3.5-3-7.1-5.7-10.8-8.3
          C98.2,621,104.3,618.9,110.6,618.9z M30,726.8v-110c57.4,5.9,101.9,52.3,105.5,110H30z"/>
        <circle cx="141.7" cy="675.1" r="3.6"/>
        <circle cx="150.5" cy="658.8" r="3.6"/>
        <circle cx="151.5" cy="649.9" r="3.6"/>
        <circle cx="151.5" cy="641.7" r="3.6"/>
        <circle cx="149.2" cy="633.2" r="3.6"/>
        <circle cx="144.4" cy="624.7" r="3.6"/>
        <circle cx="146.8" cy="667.9" r="3.6"/>
        <ellipse transform="matrix(0.101 -0.9949 0.9949 0.101 -533.4017 639.5713)" cx="87.2" cy="614.9" rx="3.6" ry="3.6"/>
        <ellipse transform="matrix(0.101 -0.9949 0.9949 0.101 -510.9924 650.2603)" cx="104.3" cy="607.9" rx="3.6" ry="3.6"/>
        <ellipse transform="matrix(0.101 -0.9949 0.9949 0.101 -500.9816 659.1335)" cx="114.2" cy="606.8" rx="3.6" ry="3.6"/>
        <ellipse transform="matrix(0.101 -0.9949 0.9949 0.101 -494.5293 669.9536)" cx="123.4" cy="608.6" rx="3.6" ry="3.6"/>
        <ellipse transform="matrix(0.101 -0.9949 0.9949 0.101 -491.2393 681.8476)" cx="131.7" cy="612.7" rx="3.6" ry="3.6"/>
        <ellipse transform="matrix(0.101 -0.9949 0.9949 0.101 -489.4244 692.9521)" cx="138.7" cy="617.3" rx="3.6" ry="3.6"/>
        <ellipse transform="matrix(0.1011 -0.9949 0.9949 0.1011 -522.1111 643.2915)" cx="94.9" cy="610.6" rx="3.6" ry="3.6"/>
        <path d="M673.7,621.4c-6.6-6.6-15.6-10.5-25.3-10.5c-19.7,0-35.8,16.1-35.8,35.8c0,8.6,3.1,16.8,8.6,23.2
          c-11.9,19.3-18.7,41.4-19.6,64.5l-0.3,7.7h7.7h132.8v-128v-7.4h-7.4C713,606.7,692.3,611.8,673.7,621.4z M619.1,646.7
          c0-16.1,13.1-29.3,29.3-29.3c7.2,0,14,2.6,19.3,7.2c-4.3,2.5-8.4,5.2-12.4,8.2c-1.8-5.3-6.7-8.7-13-8.6c-7.7,0.1-15.9,7.3-17,14.9
          c-0.9,6.2,2.7,11.9,8,14.3c-3,3.5-5.7,7.1-8.3,10.8C621.2,659.2,619.1,653.1,619.1,646.7z M644.4,641.8c-0.4,0.4-0.8,0.8-1.2,1.2
          c-0.6,0.4-1.3,0.7-2.1,0.7c-2.3,0.2-4-1.9-3.9-4.7c0.1-2.4,1.6-3.9,3.8-3.7c2.5,0.2,4.4,2.3,4.2,4.7
          C645.1,640.6,644.9,641.3,644.4,641.8z M727,727.3H617c5.9-57.4,52.3-101.9,110-105.5V727.3z"/>
        <circle cx="675.4" cy="615.6" r="3.6"/>
        <circle cx="659" cy="606.9" r="3.6"/>
        <circle cx="650.2" cy="605.9" r="3.6"/>
        <circle cx="641.9" cy="605.9" r="3.6"/>
        <circle cx="633.4" cy="608.2" r="3.6"/>
        <circle cx="624.9" cy="613" r="3.6"/>
        <circle cx="668.1" cy="610.5" r="3.6"/>
        <ellipse transform="matrix(0.101 -0.9949 0.9949 0.101 -113.711 1214.5057)" cx="615.1" cy="670.2" rx="3.6" ry="3.6"/>
        <ellipse transform="matrix(0.1009 -0.9949 0.9949 0.1009 -102.9777 1192.1488)" cx="608.1" cy="653" rx="3.6" ry="3.6"/>
        <ellipse transform="matrix(0.101 -0.9949 0.9949 0.101 -94.1416 1182.079)" cx="607" cy="643.1" rx="3.6" ry="3.6"/>
        <ellipse transform="matrix(0.101 -0.9949 0.9949 0.101 -83.3341 1175.6334)" cx="608.8" cy="633.9" rx="3.6" ry="3.6"/>
        <ellipse transform="matrix(0.101 -0.9949 0.9949 0.101 -71.4388 1172.344)" cx="613" cy="625.7" rx="3.6" ry="3.6"/>
        <ellipse transform="matrix(0.1011 -0.9949 0.9949 0.1011 -60.367 1170.4314)" cx="617.5" cy="618.6" rx="3.6" ry="3.6"/>
        <ellipse transform="matrix(0.101 -0.9949 0.9949 0.101 -109.934 1203.1755)" cx="610.8" cy="662.4" rx="3.6" ry="3.6"/>
        <path d="M99.3,657.7c-15.1-16.2-35.6-25.6-57.7-26.5l-4.8-0.2v4.8V708l-0.2,0.2l0.2,0.2v10.7h80.2h4.7v-4.7
          C121.6,693.3,113.7,673.2,99.3,657.7L99.3,657.7z M68.6,679.2c-2-1.8-4.2-3.4-6.4-4.9l11.1-25.2c5.7,3.1,11.1,6.9,15.9,11.5
          L68.6,679.2z M54,669.8c-2.6-1.2-5.2-2.2-8-3v-25.9c6.5,0.7,12.8,2.2,18.8,4.5L54,669.8z M81.6,694.9c-1.7-3-3.7-5.8-5.9-8.4
          c7.9-7.4,15.5-14.6,19.9-18.8c4.7,5.7,8.4,12,11.2,18.7L81.6,694.9z M87.9,709.8c-0.6-2.2-1.3-4.4-2.1-6.5l24-8.1
          c1.3,4.7,2.1,9.6,2.4,14.5H87.9z"/>
        <path d="M121.6,37.3h-4.7H36.7V48l-0.2,0.2l0.2,0.2v72.2v4.8l4.8-0.2c22.1-0.9,42.6-10.3,57.7-26.5l0.1-0.1
          c14.4-15.5,22.3-35.6,22.3-56.7V37.3z M68.6,77.2l20.5,18.5c-4.8,4.6-10.2,8.4-15.9,11.5L62.2,82C64.5,80.6,66.6,78.9,68.6,77.2z
           M75.7,69.9c2.2-2.6,4.1-5.4,5.9-8.4l25.2,8.4c-2.7,6.7-6.5,13-11.2,18.7C91.2,84.5,83.6,77.3,75.7,69.9z M46,89.6
          c2.8-0.8,5.4-1.8,8-3l10.8,24.5c-6,2.3-12.3,3.8-18.8,4.5V89.6z M109.7,61.2l-24-8.1c0.8-2.1,1.5-4.3,2.1-6.5h24.3
          C111.8,51.6,111,56.4,109.7,61.2z"/>
        <path d="M633.7,722.1h4.7h80.2v-10.7l0.2-0.2l-0.2-0.2v-72.2V634l-4.8,0.2c-22.1,0.9-42.6,10.3-57.7,26.5l-0.1,0.1
          c-14.4,15.5-22.3,35.6-22.3,56.7V722.1z M686.6,682.2l-20.5-18.5c4.8-4.6,10.2-8.4,15.9-11.5l11.1,25.2
          C690.8,678.8,688.7,680.5,686.6,682.2z M679.5,689.5c-2.2,2.6-4.1,5.4-5.9,8.4l-25.2-8.4c2.7-6.7,6.5-13,11.2-18.7
          C664.1,674.9,671.6,682.1,679.5,689.5z M709.3,669.8c-2.8,0.8-5.4,1.8-8,3l-10.8-24.5c6-2.3,12.3-3.8,18.8-4.5V669.8z M645.5,698.3
          l24,8.1c-0.8,2.1-1.5,4.3-2.1,6.5h-24.3C643.5,707.8,644.3,703,645.5,698.3z"/>
        <path d="M657,97.7c15.1,16.2,35.6,25.6,57.7,26.5l4.8,0.2v-4.8V47.4l0.2-0.2l-0.2-0.2V36.3h-80.2h-4.7V41
          C634.7,62.1,642.6,82.2,657,97.7L657,97.7z M687.6,76.2c2,1.8,4.2,3.4,6.4,4.9L683,106.2c-5.7-3.1-11.1-6.9-15.9-11.5L687.6,76.2z
           M702.3,85.6c2.6,1.2,5.2,2.2,8,3v25.9c-6.5-0.7-12.8-2.2-18.8-4.5L702.3,85.6z M674.7,60.6c1.7,3,3.7,5.8,5.9,8.4
          c-7.9,7.4-15.5,14.6-19.9,18.8c-4.7-5.7-8.4-12-11.2-18.7L674.7,60.6z M668.4,45.6c0.6,2.2,1.3,4.4,2.1,6.5l-24,8.1
          c-1.3-4.7-2.1-9.6-2.4-14.5H668.4z"/>
        <path d="M113.2,574.1c-45.4-53.9-72.8-123.6-72.8-199.6c0-75.9,27.2-145.3,72.5-199.2l0,0l-34.2-26.6
          c-12.1,12.6-61.8,16.2-61.8,16.2v426.3c0,0,48.4,5.9,57.3,14.6l4.5,2l3.7,1.6L113.2,574.1L113.2,574.1z"/>
        <path d="M644.7,175.2c45.2,53.9,72.5,123.4,72.5,199.2c0,76.1-27.4,145.7-72.8,199.6l0,0l30.7,35.3l3.7-1.6l4.5-2
          c8.9-8.7,57.3-14.6,57.3-14.6V164.8c0,0-49.7-3.6-61.8-16.2L644.7,175.2L644.7,175.2z"/>
        <path d="M174.2,113.6L174.2,113.6c53.7-45.4,123.1-72.8,199-73c76.1-0.2,145.8,27,199.8,72.3l0,0L608.3,82l-1.6-3.7l-2-4.5
          c-8.7-8.9-14.8-57.3-14.8-57.3l-426.3,1.2c0,0-3.5,49.7-16.1,61.8L174.2,113.6z"/>
        <path d="M608.4,678.4l1.6-3.7l-35.4-30.6l0,0c-53.8,45.6-123.4,73.2-199.4,73.4c-75.9,0.2-145.4-26.8-199.4-71.9l0,0l-26.5,34.3
          c12.7,12,16.4,61.7,16.4,61.7l426.3-1.2c0,0,5.8-48.4,14.4-57.4L608.4,678.4z"/>
      </clipPath>
      </defs>
      </svg>