<?xml version="1.0" encoding="utf-8"?>
<!-- Generator: Adobe Illustrator 20.1.0, SVG Export Plug-In . SVG Version: 6.00 Build 0)  -->
<svg version="1.1" xmlns="http://www.w3.org/2000/svg" xmlns:xlink="http://www.w3.org/1999/xlink" x="0px" y="0px"
	 viewBox="0 0 249.7 100.8" style="enable-background:new 0 0 249.7 100.8;" xml:space="preserve">
<style type="text/css">
	.st0{display:none;}
	.st1{fill:#EEF1F6;}
	.st2{fill:none;stroke:#CED6E7;stroke-width:3;stroke-linecap:round;stroke-linejoin:round;stroke-miterlimit:10;}
	.st3{fill:#CED6E7;}
</style>
<g id="Layer_1">
	<g>
		<path class="st1" d="M0,93.8c0,0.5,0.5,1,1,1h58.3v-2H1C0.5,92.8,0,93.2,0,93.8z"/>
		<path class="st1" d="M248.7,92.8h-57.4l-20.5-11.3c-0.3-0.1-0.6-0.2-0.9,0l-9.6,4l-9.5-5.2c-0.3-0.2-0.7-0.2-1,0L128,92.8H66.9v2
			h181.8c0.6,0,1-0.5,1-1C249.7,93.2,249.2,92.8,248.7,92.8z M170.2,83.4l16.9,9.3h-13.4l-11.3-6.1L170.2,83.4z M150.3,82.2
			l19.3,10.5H132L150.3,82.2z"/>
	</g>
	<line class="st2" x1="21.5" y1="99.3" x2="218.5" y2="99.3"/>
	<line class="st2" x1="223.8" y1="99.3" x2="225.3" y2="99.3"/>
	<g>
		<circle class="st1" cx="156.5" cy="22.3" r="12.3"/>
		<path class="st3" d="M156.5,36.1c-7.6,0-13.8-6.2-13.8-13.8s6.2-13.8,13.8-13.8s13.8,6.2,13.8,13.8S164.1,36.1,156.5,36.1z
			 M156.5,11.6c-5.9,0-10.8,4.8-10.8,10.8s4.8,10.8,10.8,10.8s10.8-4.8,10.8-10.8S162.4,11.6,156.5,11.6z"/>
	</g>
	<path class="st3" d="M86.5,54.2h-2.7c0,0,0-0.1,0-0.1h0c-0.1-2-1.4-3.6-3.2-4.2v-3c0-0.8-0.7-1.5-1.5-1.5c-0.8,0-1.5,0.7-1.5,1.5
		v2.9c-1.9,0.6-3.2,2.3-3.3,4.3h0v5.1h-4.4v-9.8c0-2-0.8-3.7-2.1-4.9l2.2-2.2c0.6-0.6,0.6-1.5,0-2.1c-0.6-0.6-1.5-0.6-2.1,0
		l-2.7,2.7c-0.2,0-0.3-0.1-0.5-0.1v-3.8c0-0.8-0.7-1.5-1.5-1.5s-1.5,0.7-1.5,1.5v3.8c-0.2,0-0.3,0.1-0.5,0.1l-2.7-2.7
		c-0.6-0.6-1.5-0.6-2.1,0c-0.6,0.6-0.6,1.5,0,2.1l2.2,2.2c-1.3,1.2-2.1,3-2.1,4.9v19.8h-4.4v-9.9h0c0-0.6-0.1-1.1-0.3-1.6l2.6-2.6
		c0.6-0.6,0.6-1.5,0-2.1c-0.6-0.6-1.5-0.6-2.1,0l-2.3,2.3c-0.4-0.3-0.8-0.4-1.3-0.6v-4c0-0.8-0.7-1.5-1.5-1.5
		c-0.8,0-1.5,0.7-1.5,1.5v4.1c-0.3,0.1-0.6,0.3-0.9,0.4L42.2,53c-0.6-0.6-1.5-0.6-2.1,0c-0.6,0.6-0.6,1.5,0,2.1l2.5,2.5
		c-0.2,0.5-0.3,1.1-0.3,1.7h0c0,0,0,15.4,0,16.9s0.9,3.1,3.1,3.1s10.9,0,10.9,0v21.4h13.6v-9.8H77c1.8,0,4.5-1.2,4.5-4.5v-9.8
		c0-1.9-1.3-4.7-4.8-4.7c-3.7,0-5,3-5.1,4.6c0,0,0,0.1,0,0.1v4.1h-1.6V69.2c0,0,7.4,0,10,0c2.6,0,3.9-1.1,3.9-3.9v-8.2h2.7
		c0.8,0,1.5-0.7,1.5-1.5C88,54.8,87.3,54.2,86.5,54.2z M80.8,59.6L80.8,59.6l0,5.7c0,0.4,0,0.7-0.1,0.8c-0.1,0-0.4,0.1-0.8,0.1h-10
		c-1.7,0-3,1.3-3,3v11.5H64c-0.8,0-1.5,0.7-1.5,1.5c0,0.8,0.7,1.5,1.5,1.5H73c0.8,0,1.5-0.7,1.5-1.5v-5.5c0.1-0.5,0.4-1.8,2.2-1.8
		c1.6,0,1.8,1.1,1.8,1.7v9.8c0,1.2-0.8,1.5-1.5,1.5H64c-0.8,0-1.5,0.7-1.5,1.5c0,0.8,0.7,1.5,1.5,1.5h2.8v6.8h-7.6V79.3
		c0-1.7-1.3-3-3-3h-11V59.4c0-1,0.8-1.8,1.8-1.8s1.8,0.8,1.8,1.8v9.8c0,1.7,1.3,3,3,3h4.4c1.7,0,3-1.3,3-3V49.4
		c0-2.1,1.7-3.8,3.8-3.8s3.8,1.7,3.8,3.8v9.8c0,1.7,1.3,3,3,3h4.4c1.5,0,2.7-1.1,3-2.5v-5.3c0-1,0.8-1.8,1.8-1.8s1.8,0.8,1.8,1.8
		V59.6z"/>
	<g>
		<path class="st1" d="M156.5,39.8c-9.6,0-17.5-7.9-17.5-17.5s7.9-17.5,17.5-17.5S174,12.7,174,22.3c0,4.1-1.4,8-4,11.1
			c-0.3,0.4-1,0.5-1.4,0.1c-0.4-0.4-0.5-1-0.1-1.4c2.3-2.8,3.5-6.3,3.5-9.9c0-8.5-7-15.5-15.5-15.5s-15.5,7-15.5,15.5
			s7,15.5,15.5,15.5c3.6,0,7.2-1.3,9.9-3.6c0.4-0.4,1.1-0.3,1.4,0.1c0.4,0.4,0.3,1.1-0.1,1.4C164.6,38.4,160.6,39.8,156.5,39.8z"/>
	</g>
	<g>
		<path class="st1" d="M156.5,44.7c-6,0-11.6-2.3-15.8-6.5c-3.7-3.7-5.9-8.5-6.4-13.6c-0.1-0.5,0.3-1,0.9-1.1c0.5,0,1,0.4,1.1,0.9
			c0.5,4.7,2.5,9.1,5.9,12.4c7.9,7.9,20.8,7.9,28.8,0c7.9-7.9,7.9-20.8,0-28.8C163,0,150,0,142.1,8c-3.4,3.4-5.4,7.8-5.9,12.6
			c0,0.6-0.5,0.9-1.1,0.9c-0.5,0-1-0.5-0.9-1.1c0.5-5.2,2.8-10.1,6.5-13.8c4.2-4.2,9.8-6.5,15.8-6.5s11.6,2.3,15.8,6.5
			c8.7,8.7,8.7,22.9,0,31.6C168.1,42.3,162.5,44.7,156.5,44.7z"/>
	</g>
</g>
</svg>
